<svg width="1276" height="32" viewBox="0 0 1276 32" fill="none" xmlns="http://www.w3.org/2000/svg">
<g opacity="0.6" clip-path="url(#clip0_73_604)">
<path d="M3.57354 19.2864C3.11594 19.2942 2.66161 19.2025 2.2378 19.0169C1.81399 18.8313 1.42945 18.5557 1.10726 18.2064C0.777752 17.8755 0.516423 17.474 0.3401 17.0279C0.163777 16.5818 0.0763646 16.101 0.0835179 15.6164C0.0776197 15.1231 0.165363 14.6337 0.341378 14.1781C0.517394 13.7225 0.777993 13.3102 1.10726 12.9664C1.42356 12.6061 1.80616 12.3205 2.23076 12.1276C2.65535 11.9348 3.11263 11.8391 3.57354 11.8464C4.02592 11.8413 4.47427 11.9383 4.88951 12.1312C5.30475 12.3242 5.67762 12.6087 5.98398 12.9664C6.30858 13.3129 6.56487 13.7262 6.73756 14.1815C6.91026 14.6368 6.99582 15.1248 6.98912 15.6164C6.98423 16.5881 6.62281 17.5186 5.98332 18.2057C5.34384 18.8928 4.4779 19.2812 3.57354 19.2864ZM3.57354 31.0164C3.11594 31.0242 2.66161 30.9325 2.2378 30.7469C1.81399 30.5614 1.42945 30.2857 1.10726 29.9364C0.776788 29.602 0.515006 29.1971 0.338709 28.7477C0.162411 28.2982 0.075485 27.8141 0.0835179 27.3264C0.0980243 26.3386 0.47095 25.3958 1.12286 24.6991C1.77476 24.0024 2.65411 23.6067 3.57354 23.5964C4.02592 23.5913 4.47427 23.6883 4.88951 23.8812C5.30475 24.0742 5.67762 24.3587 5.98398 24.7164C6.30576 25.0569 6.56058 25.4634 6.73325 25.9117C6.90592 26.3601 6.99293 26.8412 6.98912 27.3264C6.98913 28.3016 6.62987 29.2372 5.98986 29.9286C5.34984 30.62 4.48111 31.0111 3.57354 31.0164ZM14.6485 7.74641C14.1909 7.75419 13.7366 7.66253 13.3128 7.47694C12.889 7.29135 12.5044 7.01565 12.1823 6.66641C11.8556 6.33571 11.5967 5.93549 11.422 5.49127C11.2474 5.04705 11.1608 4.56859 11.1678 4.08641C11.1609 3.59981 11.2474 3.11689 11.4219 2.66782C11.5965 2.21874 11.8553 1.81317 12.1823 1.47641C12.4981 1.11478 12.8804 0.827608 13.305 0.633087C13.7295 0.438567 14.187 0.340944 14.6485 0.346409C15.1013 0.345006 15.5493 0.444733 15.9643 0.639259C16.3792 0.833786 16.752 1.11887 17.059 1.47641C17.383 1.81921 17.6392 2.22895 17.8119 2.68095C17.9846 3.13294 18.0704 3.61784 18.0641 4.10641C18.0695 4.58743 17.9831 5.06454 17.8103 5.50828C17.6374 5.95203 17.3817 6.35299 17.059 6.68641C16.7447 7.0289 16.369 7.2994 15.9548 7.48158C15.5405 7.66377 15.0961 7.75385 14.6485 7.74641ZM3.57354 7.81641C3.11594 7.82419 2.66161 7.73253 2.2378 7.54694C1.81399 7.36135 1.42945 7.08565 1.10726 6.73641C0.778667 6.40469 0.517943 6.00309 0.341691 5.55719C0.165438 5.11128 0.0775128 4.63082 0.0835179 4.14641C0.0776197 3.65313 0.165363 3.16374 0.341378 2.70811C0.517394 2.25249 0.777993 1.8402 1.10726 1.49641C1.42309 1.13478 1.80541 0.847608 2.22996 0.653088C2.65451 0.458567 3.11203 0.360944 3.57354 0.366409C4.02514 0.360617 4.47289 0.456377 4.88801 0.647537C5.30312 0.838697 5.67643 1.12103 5.98398 1.47641C6.30901 1.82259 6.56561 2.23578 6.73833 2.69116C6.91105 3.14654 6.99636 3.63473 6.98912 4.12641C6.98423 5.09814 6.62281 6.02856 5.98332 6.71569C5.34384 7.40281 4.4779 7.79116 3.57354 7.79641V7.81641Z" fill="#515A6C"/>
<path opacity="0.77" d="M34.044 19.288C33.5865 19.2952 33.1323 19.2033 32.7086 19.0178C32.2848 18.8322 31.9002 18.5568 31.5777 18.208C31.25 17.8756 30.9899 17.4738 30.8137 17.0281C30.6376 16.5824 30.5491 16.1023 30.554 15.618C30.5502 15.1251 30.639 14.6364 30.8148 14.1811C30.9907 13.7258 31.2502 13.3132 31.5777 12.968C31.8944 12.6082 32.277 12.3229 32.7016 12.1301C33.1261 11.9374 33.5832 11.8413 34.044 11.848C34.4965 11.8416 34.9453 11.9381 35.3607 12.1311C35.7761 12.3242 36.1488 12.6094 36.4545 12.968C36.7791 13.3146 37.0354 13.7278 37.2081 14.1831C37.3807 14.6384 37.4663 15.1264 37.4596 15.618C37.4547 16.5898 37.0933 17.5202 36.4538 18.2073C35.8143 18.8944 34.9484 19.2828 34.044 19.288ZM34.044 31.018C33.5865 31.0252 33.1323 30.9333 32.7086 30.7478C32.2848 30.5622 31.9002 30.2868 31.5777 29.938C31.2491 29.6021 30.9885 29.197 30.8123 28.7478C30.6362 28.2987 30.5482 27.8154 30.554 27.328C30.5531 26.8415 30.6433 26.3597 30.8192 25.9113C30.995 25.463 31.253 25.0572 31.5777 24.718C31.8944 24.3582 32.277 24.0729 32.7016 23.8801C33.1261 23.6874 33.5832 23.5913 34.044 23.598C34.4965 23.5916 34.9453 23.6881 35.3607 23.8811C35.7761 24.0742 36.1488 24.3594 36.4545 24.718C36.7763 25.0585 37.031 25.465 37.2037 25.9134C37.3764 26.3617 37.4634 26.8428 37.4596 27.328C37.4596 28.3032 37.1003 29.2388 36.4603 29.9302C35.8203 30.6217 34.9516 31.0128 34.044 31.018ZM45.119 19.288C44.6615 19.2952 44.2073 19.2033 43.7836 19.0178C43.3598 18.8322 42.9752 18.5568 42.6527 18.208C42.325 17.8756 42.0649 17.4738 41.8887 17.0281C41.7126 16.5824 41.6241 16.1023 41.629 15.618C41.6253 15.1251 41.714 14.6364 41.8898 14.1811C42.0657 13.7258 42.3252 13.3132 42.6527 12.968C42.9694 12.6082 43.352 12.3229 43.7765 12.1301C44.2011 11.9374 44.6582 11.8413 45.119 11.848C45.5716 11.8416 46.0203 11.9381 46.4357 12.1311C46.8511 12.3242 47.2238 12.6094 47.5295 12.968C47.8541 13.3146 48.1104 13.7278 48.283 14.1831C48.4557 14.6384 48.5413 15.1264 48.5346 15.618C48.5297 16.5898 48.1683 17.5202 47.5288 18.2073C46.8893 18.8944 46.0234 19.2828 45.119 19.288ZM34.044 7.81804C33.5865 7.82524 33.1323 7.73332 32.7086 7.54776C32.2848 7.36221 31.9002 7.08682 31.5777 6.73804C31.2505 6.40519 30.9907 6.00339 30.8145 5.55774C30.6384 5.11209 30.5497 4.63219 30.554 4.14804C30.5502 3.65509 30.639 3.16639 30.8148 2.71109C30.9907 2.25579 31.2502 1.84323 31.5777 1.49804C31.8939 1.1369 32.2763 0.850048 32.7008 0.655565C33.1252 0.461081 33.5826 0.363182 34.044 0.368039C34.4958 0.361002 34.9439 0.456198 35.3591 0.647435C35.7744 0.838673 36.1476 1.12167 36.4545 1.47804C36.7795 1.82422 37.0361 2.23741 37.2088 2.69279C37.3815 3.14817 37.4668 3.63636 37.4596 4.12804C37.4547 5.09977 37.0933 6.03019 36.4538 6.71732C35.8143 7.40444 34.9484 7.79279 34.044 7.79804V7.81804Z" fill="#515A6C"/>
<path opacity="0.48" d="M75.5985 19.2879C75.1408 19.2969 74.6861 19.2057 74.2622 19.0201C73.8382 18.8344 73.4538 18.5581 73.1322 18.2079C72.8015 17.8775 72.5387 17.4763 72.3608 17.0303C72.1829 16.5843 72.0938 16.1032 72.0992 15.6179C72.095 15.124 72.1845 14.6344 72.3621 14.1788C72.5397 13.7232 72.8017 13.3112 73.1322 12.9679C73.4478 12.6066 73.8303 12.3203 74.2551 12.1274C74.6798 11.9346 75.1375 11.8393 75.5985 11.8479C76.0495 11.8429 76.4964 11.9401 76.9101 12.1331C77.3238 12.326 77.6951 12.6105 77.9997 12.9679C78.3255 13.314 78.5833 13.7269 78.7575 14.1821C78.9318 14.6374 79.019 15.1257 79.0141 15.6179C79.0068 16.5888 78.6446 17.5178 78.0056 18.2043C77.3667 18.8909 76.5021 19.2801 75.5985 19.2879ZM64.5235 7.81792C64.0659 7.8257 63.6116 7.73404 63.1878 7.54845C62.764 7.36286 62.3794 7.08717 62.0572 6.73792C61.7286 6.4062 61.4679 6.00461 61.2917 5.5587C61.1154 5.11279 61.0275 4.63234 61.0335 4.14792C61.0276 3.65465 61.1153 3.16525 61.2914 2.70963C61.4674 2.254 61.728 1.84171 62.0572 1.49792C62.3731 1.1363 62.7554 0.849123 63.1799 0.654602C63.6045 0.460081 64.062 0.362459 64.5235 0.367924C64.9751 0.362132 65.4229 0.457891 65.838 0.649052C66.2531 0.840212 66.6264 1.12255 66.934 1.47792C67.2613 1.82645 67.5192 2.24288 67.692 2.70189C67.8648 3.1609 67.9489 3.65289 67.9391 4.14792C67.9342 5.11965 67.5728 6.05008 66.9333 6.7372C66.2938 7.42432 65.4279 7.81267 64.5235 7.81792Z" fill="#515A6C"/>
<path opacity="0.67" d="M94.9942 19.2864C94.5367 19.2936 94.0825 19.2016 93.6587 19.0161C93.235 18.8305 92.8504 18.5551 92.5279 18.2064C92.2002 17.8739 91.9401 17.4722 91.7639 17.0264C91.5877 16.5807 91.4993 16.1006 91.5042 15.6164C91.5004 15.1234 91.5892 14.6347 91.765 14.1794C91.9409 13.7241 92.2004 13.3116 92.5279 12.9664C92.8446 12.6065 93.2272 12.3212 93.6517 12.1285C94.0762 11.9357 94.5334 11.8396 94.9942 11.8464C95.4467 11.84 95.8954 11.9364 96.3108 12.1295C96.7263 12.3225 97.099 12.6077 97.4046 12.9664C97.7292 13.3129 97.9855 13.7261 98.1582 14.1814C98.3309 14.6367 98.4164 15.1248 98.4097 15.6164C98.4049 16.5881 98.0434 17.5185 97.4039 18.2056C96.7645 18.8928 95.8986 19.2811 94.9942 19.2864ZM94.9942 31.0164C94.5367 31.0236 94.0825 30.9316 93.6587 30.7461C93.235 30.5605 92.8504 30.2851 92.5279 29.9364C92.1993 29.6005 91.9387 29.1953 91.7625 28.7462C91.5864 28.2971 91.4984 27.8137 91.5042 27.3264C91.5033 26.8398 91.5935 26.358 91.7694 25.9097C91.9452 25.4613 92.2032 25.0555 92.5279 24.7164C92.8446 24.3565 93.2272 24.0712 93.6517 23.8785C94.0762 23.6857 94.5334 23.5896 94.9942 23.5964C95.4467 23.59 95.8954 23.6864 96.3108 23.8795C96.7263 24.0725 97.099 24.3577 97.4046 24.7164C97.7264 25.0568 97.9812 25.4633 98.1539 25.9117C98.3265 26.3601 98.4136 26.8411 98.4097 27.3264C98.4098 28.3016 98.0505 29.2371 97.4105 29.9285C96.7705 30.62 95.9018 31.0111 94.9942 31.0164ZM106.097 19.2864C105.64 19.2936 105.185 19.2016 104.762 19.0161C104.338 18.8305 103.953 18.5551 103.631 18.2064C103.301 17.8754 103.04 17.474 102.864 17.0279C102.687 16.5818 102.6 16.101 102.607 15.6164C102.601 15.1231 102.689 14.6337 102.865 14.1781C103.041 13.7224 103.302 13.3102 103.631 12.9664C103.947 12.6065 104.33 12.3212 104.755 12.1285C105.179 11.9357 105.636 11.8396 106.097 11.8464C106.549 11.8412 106.998 11.9383 107.413 12.1312C107.828 12.3241 108.201 12.6087 108.508 12.9664C108.832 13.3129 109.088 13.7261 109.261 14.1814C109.434 14.6367 109.519 15.1248 109.513 15.6164C109.508 16.5881 109.146 17.5185 108.507 18.2056C107.867 18.8928 107.001 19.2811 106.097 19.2864ZM106.097 7.74637C105.64 7.75357 105.185 7.66165 104.762 7.47609C104.338 7.29053 103.953 7.01514 103.631 6.66636C103.302 6.33693 103.041 5.93717 102.865 5.49282C102.688 5.04847 102.601 4.56937 102.607 4.08637C102.601 3.59895 102.688 3.1154 102.865 2.6662C103.041 2.217 103.302 1.81188 103.631 1.47636C103.947 1.11522 104.329 0.828372 104.754 0.633889C105.178 0.439406 105.636 0.341507 106.097 0.346364C106.545 0.348498 106.988 0.449956 107.398 0.644391C107.808 0.838825 108.176 1.12205 108.48 1.47636C108.804 1.81916 109.06 2.22891 109.233 2.6809C109.405 3.1329 109.491 3.61779 109.485 4.10637C109.473 5.06773 109.112 5.98608 108.479 6.66592C107.847 7.34577 106.992 7.73342 106.097 7.74637Z" fill="#515A6C"/>
<path opacity="0.14" d="M125.473 19.2882C125.016 19.296 124.561 19.2043 124.137 19.0187C123.714 18.8331 123.329 18.5574 123.007 18.2082C122.676 17.8777 122.413 17.4766 122.236 17.0306C122.058 16.5845 121.968 16.1034 121.974 15.6182C121.97 15.1243 122.059 14.6346 122.237 14.179C122.414 13.7235 122.676 13.3115 123.007 12.9682C123.323 12.6079 123.706 12.3222 124.13 12.1294C124.555 11.9366 125.012 11.8408 125.473 11.8482C125.925 11.8437 126.374 11.941 126.789 12.1339C127.204 12.3268 127.577 12.611 127.884 12.9682C128.208 13.3147 128.465 13.728 128.637 14.1833C128.81 14.6386 128.895 15.1266 128.889 15.6182C128.884 16.5899 128.522 17.5203 127.883 18.2075C127.243 18.8946 126.378 19.2829 125.473 19.2882ZM136.548 7.74819C136.089 7.75617 135.633 7.66465 135.208 7.47908C134.783 7.29352 134.397 7.01773 134.073 6.66819C133.746 6.33724 133.486 5.93719 133.31 5.49319C133.134 5.04919 133.045 4.57084 133.049 4.08819C133.066 3.09849 133.44 2.15469 134.094 1.45662C134.747 0.758548 135.627 0.361014 136.548 0.34819C137 0.345718 137.447 0.445006 137.86 0.639644C138.274 0.834282 138.645 1.11995 138.949 1.47819C139.273 1.82099 139.53 2.23073 139.702 2.68273C139.875 3.13472 139.961 3.61962 139.954 4.10819C139.947 5.07646 139.586 6.00285 138.949 6.68754C138.311 7.37223 137.449 7.76035 136.548 7.76819V7.74819Z" fill="#515A6C"/>
<path opacity="0.1" d="M155.943 31.018C155.486 31.0252 155.032 30.9333 154.608 30.7478C154.184 30.5622 153.8 30.2868 153.477 29.938C153.148 29.6021 152.888 29.197 152.712 28.7478C152.536 28.2987 152.448 27.8154 152.453 27.328C152.453 26.8415 152.543 26.3597 152.719 25.9113C152.894 25.463 153.152 25.0572 153.477 24.718C153.794 24.3582 154.176 24.0729 154.601 23.8801C155.025 23.6874 155.483 23.5913 155.943 23.598C156.396 23.5916 156.845 23.6881 157.26 23.8811C157.675 24.0742 158.048 24.3594 158.354 24.718C158.676 25.0585 158.93 25.465 159.103 25.9134C159.276 26.3617 159.363 26.8428 159.359 27.328C159.359 28.3032 159 29.2388 158.36 29.9302C157.72 30.6217 156.851 31.0128 155.943 31.018ZM167.018 31.018C166.561 31.0258 166.106 30.9342 165.683 30.7486C165.259 30.563 164.874 30.2873 164.552 29.938C164.222 29.6037 163.96 29.1987 163.784 28.7493C163.607 28.2998 163.52 27.8157 163.528 27.328C163.543 26.3402 163.916 25.3975 164.568 24.7007C165.22 24.004 166.099 23.6083 167.018 23.598C167.471 23.5929 167.919 23.6899 168.334 23.8829C168.75 24.0758 169.122 24.3604 169.429 24.718C169.751 25.0585 170.005 25.465 170.178 25.9134C170.351 26.3617 170.438 26.8428 170.434 27.328C170.434 28.3032 170.075 29.2388 169.435 29.9302C168.795 30.6217 167.926 31.0128 167.018 31.018ZM155.943 7.81804C155.486 7.82524 155.032 7.73332 154.608 7.54776C154.184 7.36221 153.8 7.08682 153.477 6.73804C153.15 6.40519 152.89 6.00339 152.714 5.55774C152.538 5.11209 152.449 4.63219 152.453 4.14804C152.45 3.65509 152.538 3.16639 152.714 2.71109C152.89 2.25579 153.15 1.84323 153.477 1.49804C153.793 1.1369 154.176 0.850048 154.6 0.655565C155.025 0.461081 155.482 0.363182 155.943 0.368039C156.395 0.361002 156.843 0.456198 157.259 0.647435C157.674 0.838673 158.047 1.12167 158.354 1.47804C158.679 1.82422 158.935 2.23741 159.108 2.69279C159.281 3.14817 159.366 3.63636 159.359 4.12804C159.354 5.09977 158.993 6.03019 158.353 6.71732C157.714 7.40444 156.848 7.79279 155.943 7.79804V7.81804Z" fill="#515A6C"/>
<path opacity="0.72" d="M186.424 31.0165C185.966 31.0255 185.511 30.9343 185.087 30.7487C184.663 30.563 184.279 30.2867 183.957 29.9365C183.626 29.6026 183.362 29.198 183.184 28.7486C183.007 28.2992 182.918 27.8148 182.924 27.3265C182.923 26.839 183.014 26.3563 183.191 25.9076C183.369 25.459 183.63 25.0537 183.957 24.7165C184.273 24.3552 184.655 24.0689 185.08 23.876C185.505 23.6831 185.962 23.5879 186.424 23.5965C186.875 23.5915 187.321 23.6887 187.735 23.8817C188.149 24.0746 188.52 24.3591 188.825 24.7165C189.151 25.0548 189.411 25.4602 189.588 25.9086C189.766 26.357 189.857 26.8392 189.858 27.3265C189.863 27.8129 189.776 28.2953 189.601 28.7441C189.427 29.1929 189.169 29.5987 188.843 29.9365C188.531 30.2858 188.155 30.5619 187.738 30.7478C187.322 30.9336 186.874 31.0251 186.424 31.0165ZM197.489 7.74652C197.032 7.75372 196.578 7.6618 196.154 7.47624C195.73 7.29069 195.345 7.0153 195.023 6.66651C194.696 6.33556 194.436 5.93552 194.26 5.49152C194.084 5.04752 193.995 4.56917 193.999 4.08652C194.016 3.09852 194.389 2.15618 195.041 1.45838C195.692 0.760581 196.57 0.361912 197.489 0.346515C197.942 0.343265 198.391 0.442156 198.806 0.636799C199.221 0.831442 199.594 1.11751 199.9 1.47652C200.224 1.81931 200.48 2.22906 200.653 2.68105C200.825 3.13305 200.911 3.61794 200.905 4.10652C200.897 5.0765 200.535 6.00438 199.896 6.68935C199.257 7.37432 198.392 7.76129 197.489 7.76652V7.74652ZM186.424 7.81652C185.966 7.82545 185.511 7.73432 185.087 7.54867C184.663 7.36301 184.279 7.0867 183.957 6.73651C183.627 6.40529 183.365 6.00402 183.187 5.55816C183.01 5.1123 182.92 4.63158 182.924 4.14651C182.917 3.64925 183.006 3.15578 183.183 2.69657C183.361 2.23735 183.624 1.82213 183.957 1.47652C184.272 1.11391 184.655 0.826081 185.079 0.631485C185.504 0.436888 185.962 0.339823 186.424 0.346515C186.875 0.343421 187.322 0.44243 187.736 0.637108C188.15 0.831785 188.521 1.11778 188.825 1.47652C189.157 1.82285 189.419 2.23821 189.597 2.69725C189.775 3.1563 189.863 3.64941 189.858 4.14651C189.85 5.11743 189.488 6.04637 188.849 6.73293C188.21 7.4195 187.346 7.80868 186.442 7.81652H186.424Z" fill="#515A6C"/>
<path opacity="0.57" d="M227.949 19.2864C227.491 19.2942 227.037 19.2025 226.613 19.0169C226.189 18.8313 225.805 18.5557 225.483 18.2064C225.152 17.876 224.889 17.4748 224.711 17.0288C224.533 16.5827 224.444 16.1017 224.45 15.6164C224.445 15.1225 224.535 14.6328 224.712 14.1773C224.89 13.7217 225.152 13.3097 225.483 12.9664C225.799 12.6061 226.182 12.3205 226.606 12.1276C227.031 11.9348 227.488 11.8391 227.949 11.8464C228.4 11.8414 228.847 11.9386 229.261 12.1316C229.674 12.3245 230.045 12.609 230.35 12.9664C230.678 13.311 230.936 13.7237 231.111 14.1793C231.285 14.6349 231.372 15.1239 231.364 15.6164C231.357 16.5873 230.995 17.5163 230.356 18.2028C229.717 18.8894 228.853 19.2786 227.949 19.2864ZM227.949 31.0164C227.491 31.0242 227.037 30.9325 226.613 30.7469C226.189 30.5614 225.805 30.2857 225.483 29.9364C225.151 29.6025 224.888 29.1979 224.71 28.7485C224.532 28.2991 224.443 27.8147 224.45 27.3264C224.448 26.8389 224.539 26.3561 224.717 25.9075C224.894 25.4588 225.155 25.0536 225.483 24.7164C225.799 24.3561 226.182 24.0705 226.606 23.8776C227.031 23.6848 227.488 23.5891 227.949 23.5964C228.4 23.5914 228.847 23.6886 229.261 23.8816C229.674 24.0745 230.045 24.359 230.35 24.7164C230.675 25.055 230.932 25.4609 231.107 25.9095C231.281 26.3582 231.369 26.8402 231.364 27.3264C231.362 28.3008 231.002 29.2348 230.363 29.9257C229.723 30.6166 228.856 31.0085 227.949 31.0164ZM239.015 19.2864C238.557 19.2936 238.103 19.2017 237.679 19.0161C237.255 18.8306 236.871 18.5552 236.548 18.2064C236.221 17.8739 235.961 17.4722 235.784 17.0265C235.608 16.5807 235.52 16.1006 235.525 15.6164C235.521 15.1235 235.61 14.6348 235.785 14.1795C235.961 13.7242 236.221 13.3116 236.548 12.9664C236.865 12.6066 237.248 12.3213 237.672 12.1285C238.097 11.9357 238.554 11.8397 239.015 11.8464C239.467 11.84 239.916 11.9365 240.331 12.1295C240.747 12.3225 241.119 12.6077 241.425 12.9664C241.75 13.3129 242.006 13.7262 242.179 14.1815C242.351 14.6368 242.437 15.1248 242.43 15.6164C242.425 16.5881 242.064 17.5186 241.424 18.2057C240.785 18.8928 239.919 19.2812 239.015 19.2864ZM227.949 7.81641C227.491 7.82419 227.037 7.73253 226.613 7.54694C226.189 7.36135 225.805 7.08565 225.483 6.73641C225.153 6.40519 224.891 6.00391 224.713 5.55805C224.535 5.11219 224.445 4.63147 224.45 4.14641C224.443 3.64914 224.531 3.15568 224.709 2.69646C224.886 2.23724 225.15 1.82202 225.483 1.47641C225.798 1.11478 226.181 0.827608 226.605 0.633087C227.03 0.438567 227.487 0.340944 227.949 0.346409C228.401 0.343314 228.848 0.442323 229.261 0.637001C229.675 0.831679 230.046 1.11767 230.35 1.47641C230.678 1.82069 230.937 2.2333 231.112 2.68897C231.286 3.14464 231.372 3.63377 231.364 4.12641C231.357 5.09733 230.995 6.02626 230.356 6.71283C229.717 7.39939 228.853 7.78857 227.949 7.79641V7.81641Z" fill="#515A6C"/>
<path opacity="0.75" d="M258.419 31.0166C257.958 31.0265 257.501 30.9359 257.074 30.7503C256.647 30.5646 256.259 30.2878 255.934 29.9366C255.606 29.6007 255.345 29.1955 255.169 28.7464C254.993 28.2973 254.905 27.8139 254.91 27.3266C254.91 26.84 255 26.3582 255.176 25.9099C255.351 25.4615 255.609 25.0557 255.934 24.7166C256.251 24.3568 256.633 24.0715 257.058 23.8787C257.483 23.6859 257.94 23.5898 258.4 23.5966C258.853 23.5902 259.302 23.6867 259.717 23.8797C260.133 24.0727 260.505 24.3579 260.811 24.7166C261.133 25.057 261.387 25.4635 261.56 25.9119C261.733 26.3603 261.82 26.8414 261.816 27.3266C261.816 28.3018 261.457 29.2373 260.817 29.9288C260.177 30.6202 259.308 31.0113 258.4 31.0166H258.419ZM269.494 31.0166C269.036 31.0244 268.582 30.9327 268.158 30.7471C267.735 30.5615 267.35 30.2858 267.028 29.9366C266.697 29.6022 266.436 29.1973 266.259 28.7478C266.083 28.2984 265.996 27.8143 266.004 27.3266C266.019 26.3387 266.392 25.396 267.043 24.6993C267.695 24.0026 268.575 23.6069 269.494 23.5966C269.946 23.5914 270.395 23.6885 270.81 23.8814C271.225 24.0744 271.598 24.3589 271.904 24.7166C272.226 25.057 272.481 25.4635 272.654 25.9119C272.826 26.3603 272.913 26.8414 272.91 27.3266C272.91 28.3018 272.55 29.2373 271.91 29.9288C271.27 30.6202 270.402 31.0113 269.494 31.0166ZM258.419 7.81658C257.958 7.82649 257.501 7.73589 257.074 7.55025C256.647 7.36462 256.259 7.08781 255.934 6.73658C255.607 6.40373 255.347 6.00193 255.171 5.55628C254.995 5.11063 254.906 4.63073 254.91 4.14658C254.904 3.65028 254.992 3.15777 255.168 2.69884C255.344 2.23992 255.604 1.82411 255.934 1.47658C256.25 1.11544 256.633 0.828587 257.057 0.634104C257.482 0.439621 257.939 0.341722 258.4 0.346579C258.857 0.339241 259.309 0.436193 259.728 0.631007C260.147 0.82582 260.522 1.11405 260.83 1.47658C261.155 1.82276 261.411 2.23595 261.584 2.69133C261.757 3.14671 261.842 3.6349 261.835 4.12658C261.83 5.09831 261.468 6.02873 260.829 6.71586C260.189 7.40298 259.323 7.79133 258.419 7.79658V7.81658Z" fill="#515A6C"/>
<path opacity="0.44" d="M288.899 19.2882C288.44 19.2962 287.984 19.2047 287.559 19.0191C287.134 18.8336 286.747 18.5578 286.423 18.2082C286.096 17.8758 285.836 17.474 285.659 17.0283C285.483 16.5825 285.395 16.1025 285.4 15.6182C285.396 15.1253 285.485 14.6366 285.661 14.1813C285.836 13.726 286.096 13.3134 286.423 12.9682C286.742 12.6076 287.126 12.3219 287.552 12.1291C287.978 11.9364 288.437 11.8407 288.899 11.8482C289.35 11.8432 289.797 11.9404 290.211 12.1334C290.624 12.3263 290.996 12.6108 291.3 12.9682C291.625 13.3147 291.881 13.728 292.054 14.1833C292.226 14.6386 292.312 15.1266 292.305 15.6182C292.3 16.5882 291.94 17.5172 291.303 18.204C290.665 18.8909 289.802 19.2803 288.899 19.2882ZM288.899 31.0182C288.44 31.0262 287.984 30.9347 287.559 30.7491C287.134 30.5636 286.747 30.2878 286.423 29.9382C286.095 29.6023 285.834 29.1971 285.658 28.748C285.482 28.2989 285.394 27.8156 285.4 27.3282C285.399 26.8417 285.489 26.3599 285.665 25.9115C285.841 25.4631 286.099 25.0573 286.423 24.7182C286.742 24.3576 287.126 24.0719 287.552 23.8791C287.978 23.6864 288.437 23.5907 288.899 23.5982C289.35 23.5932 289.797 23.6904 290.211 23.8834C290.624 24.0763 290.996 24.3608 291.3 24.7182C291.622 25.0587 291.877 25.4652 292.049 25.9135C292.222 26.3619 292.309 26.843 292.305 27.3282C292.305 28.3017 291.947 29.2357 291.309 29.9269C290.671 30.6181 289.805 31.0103 288.899 31.0182ZM299.965 19.2882C299.507 19.2954 299.053 19.2035 298.629 19.018C298.206 18.8324 297.821 18.557 297.498 18.2082C297.171 17.8758 296.911 17.474 296.734 17.0283C296.558 16.5825 296.47 16.1025 296.475 15.6182C296.471 15.1253 296.56 14.6366 296.736 14.1813C296.911 13.726 297.171 13.3134 297.498 12.9682C297.815 12.6084 298.198 12.3231 298.622 12.1303C299.047 11.9375 299.504 11.8415 299.965 11.8482C300.417 11.8418 300.866 11.9383 301.281 12.1313C301.697 12.3243 302.07 12.6095 302.375 12.9682C302.703 13.3131 302.963 13.7256 303.139 14.1809C303.315 14.6363 303.403 15.1252 303.399 15.6182C303.394 16.5899 303.033 17.5204 302.393 18.2075C301.754 18.8946 300.888 19.283 299.983 19.2882H299.965ZM299.965 7.74822C299.507 7.75543 299.053 7.66351 298.629 7.47795C298.206 7.29239 297.821 7.017 297.498 6.66822C297.171 6.33727 296.912 5.93723 296.736 5.49323C296.559 5.04923 296.471 4.57087 296.475 4.08822C296.491 3.10023 296.865 2.15789 297.516 1.46009C298.167 0.762288 299.045 0.363619 299.965 0.348222C300.418 0.344972 300.866 0.443862 301.281 0.638505C301.697 0.833148 302.069 1.11922 302.375 1.47822C302.7 1.81699 302.959 2.22273 303.134 2.67118C303.31 3.11963 303.4 3.60158 303.399 4.08822C303.392 5.05821 303.029 5.98609 302.39 6.67106C301.751 7.35603 300.886 7.743 299.983 7.74822H299.965Z" fill="#515A6C"/>
<path opacity="0.23" d="M319.369 19.2879C318.912 19.2957 318.458 19.204 318.034 19.0185C317.61 18.8329 317.225 18.5572 316.903 18.2079C316.574 17.877 316.312 17.4755 316.136 17.0294C315.96 16.5833 315.872 16.1025 315.879 15.6179C315.874 15.1246 315.961 14.6353 316.137 14.1796C316.313 13.724 316.574 13.3117 316.903 12.9679C317.219 12.6076 317.602 12.322 318.027 12.1292C318.451 11.9363 318.909 11.8406 319.369 11.8479C319.822 11.8428 320.27 11.9398 320.685 12.1328C321.101 12.3257 321.474 12.6102 321.78 12.9679C322.105 13.3144 322.361 13.7277 322.534 14.183C322.706 14.6383 322.792 15.1263 322.785 15.6179C322.78 16.5896 322.419 17.5201 321.779 18.2072C321.14 18.8943 320.274 19.2827 319.369 19.2879ZM319.369 31.0179C318.912 31.0257 318.458 30.934 318.034 30.7485C317.61 30.5629 317.225 30.2872 316.903 29.9379C316.573 29.6035 316.311 29.1986 316.135 28.7492C315.958 28.2997 315.871 27.8156 315.879 27.3279C315.894 26.3401 316.267 25.3974 316.919 24.7006C317.571 24.0039 318.45 23.6082 319.369 23.5979C319.822 23.5928 320.27 23.6898 320.685 23.8828C321.101 24.0757 321.474 24.3602 321.78 24.7179C322.102 25.0584 322.356 25.4649 322.529 25.9132C322.702 26.3616 322.789 26.8427 322.785 27.3279C322.785 28.3031 322.426 29.2387 321.786 29.9301C321.146 30.6215 320.277 31.0126 319.369 31.0179ZM330.444 19.2879C329.987 19.2957 329.533 19.204 329.109 19.0185C328.685 18.8329 328.3 18.5572 327.978 18.2079C327.647 17.8775 327.385 17.4763 327.207 17.0303C327.029 16.5843 326.94 16.1032 326.945 15.6179C326.941 15.124 327.03 14.6344 327.208 14.1788C327.386 13.7232 327.648 13.3112 327.978 12.9679C328.294 12.6076 328.677 12.322 329.102 12.1292C329.526 11.9363 329.984 11.8406 330.444 11.8479C330.897 11.8434 331.345 11.9407 331.76 12.1336C332.175 12.3265 332.548 12.6107 332.855 12.9679C333.18 13.3144 333.436 13.7277 333.608 14.183C333.781 14.6383 333.867 15.1263 333.86 15.6179C333.855 16.5896 333.494 17.5201 332.854 18.2072C332.215 18.8943 331.349 19.2827 330.444 19.2879ZM319.369 7.81792C318.912 7.8257 318.458 7.73404 318.034 7.54845C317.61 7.36286 317.225 7.08717 316.903 6.73792C316.575 6.4062 316.314 6.00461 316.138 5.5587C315.961 5.11279 315.873 4.63234 315.879 4.14792C315.874 3.65465 315.961 3.16525 316.137 2.70963C316.313 2.254 316.574 1.84171 316.903 1.49792C317.219 1.1363 317.601 0.849123 318.026 0.654602C318.45 0.460081 318.908 0.362459 319.369 0.367924C319.821 0.362132 320.269 0.457891 320.684 0.649052C321.099 0.840212 321.472 1.12255 321.78 1.47792C322.105 1.82411 322.362 2.23729 322.534 2.69267C322.707 3.14805 322.792 3.63624 322.785 4.12793C322.78 5.09965 322.419 6.03008 321.779 6.7172C321.14 7.40432 320.274 7.79267 319.369 7.79792V7.81792Z" fill="#515A6C"/>
<path opacity="0.88" d="M349.84 31.018C349.382 31.0252 348.928 30.9333 348.504 30.7478C348.081 30.5622 347.696 30.2868 347.374 29.938C347.045 29.6021 346.784 29.197 346.608 28.7478C346.432 28.2987 346.344 27.8154 346.35 27.328C346.349 26.8415 346.439 26.3597 346.615 25.9113C346.791 25.463 347.049 25.0572 347.374 24.718C347.69 24.3582 348.073 24.0729 348.497 23.8801C348.922 23.6874 349.379 23.5913 349.84 23.598C350.292 23.5916 350.741 23.6881 351.157 23.8811C351.572 24.0742 351.945 24.3594 352.25 24.718C352.572 25.0585 352.827 25.465 353 25.9134C353.172 26.3617 353.259 26.8428 353.255 27.328C353.255 28.3032 352.896 29.2388 352.256 29.9302C351.616 30.6217 350.747 31.0128 349.84 31.018ZM360.915 31.018C360.457 31.0252 360.003 30.9333 359.579 30.7478C359.156 30.5622 358.771 30.2868 358.449 29.938C358.12 29.6021 357.859 29.197 357.683 28.7478C357.507 28.2987 357.419 27.8154 357.425 27.328C357.424 26.8415 357.514 26.3597 357.69 25.9113C357.866 25.463 358.124 25.0572 358.449 24.718C358.765 24.3582 359.148 24.0729 359.572 23.8801C359.997 23.6874 360.454 23.5913 360.915 23.598C361.367 23.5916 361.816 23.6881 362.232 23.8811C362.647 24.0742 363.02 24.3594 363.325 24.718C363.647 25.0585 363.902 25.465 364.075 25.9134C364.247 26.3617 364.334 26.8428 364.33 27.328C364.33 28.3032 363.971 29.2388 363.331 29.9302C362.691 30.6217 361.822 31.0128 360.915 31.018ZM349.84 7.81804C349.382 7.82524 348.928 7.73332 348.504 7.54776C348.081 7.36221 347.696 7.08682 347.374 6.73804C347.046 6.40519 346.787 6.00339 346.61 5.55774C346.434 5.11209 346.346 4.63219 346.35 4.14804C346.346 3.65509 346.435 3.16639 346.611 2.71109C346.787 2.25579 347.046 1.84323 347.374 1.49804C347.69 1.1369 348.072 0.850048 348.497 0.655565C348.921 0.461081 349.378 0.363182 349.84 0.368039C350.292 0.361002 350.74 0.456198 351.155 0.647435C351.57 0.838673 351.943 1.12167 352.25 1.47804C352.575 1.82422 352.832 2.23741 353.005 2.69279C353.177 3.14817 353.263 3.63636 353.255 4.12804C353.251 5.09977 352.889 6.03019 352.25 6.71732C351.61 7.40444 350.744 7.79279 349.84 7.79804V7.81804Z" fill="#515A6C"/>
<path d="M380.32 31.0164C379.862 31.0242 379.408 30.9325 378.984 30.7469C378.56 30.5614 378.176 30.2857 377.853 29.9364C377.523 29.602 377.261 29.1971 377.085 28.7477C376.909 28.2982 376.822 27.8141 376.83 27.3264C376.844 26.3386 377.217 25.3958 377.869 24.6991C378.521 24.0024 379.4 23.6067 380.32 23.5964C380.772 23.5913 381.22 23.6883 381.636 23.8812C382.051 24.0742 382.424 24.3587 382.73 24.7164C383.052 25.0569 383.307 25.4634 383.479 25.9117C383.652 26.3601 383.739 26.8412 383.735 27.3264C383.735 28.3016 383.376 29.2372 382.736 29.9286C382.096 30.62 381.227 31.0111 380.32 31.0164ZM391.395 7.74641C390.937 7.75534 390.482 7.66422 390.058 7.47856C389.634 7.29291 389.25 7.01659 388.928 6.66641C388.598 6.33747 388.336 5.93804 388.158 5.49373C387.98 5.04943 387.891 4.57007 387.895 4.08641C387.917 3.09831 388.293 2.15738 388.945 1.46036C389.597 0.76334 390.475 0.364204 391.395 0.346409C391.846 0.343938 392.293 0.443225 392.707 0.637863C393.12 0.832501 393.491 1.11816 393.796 1.47641C394.121 1.81871 394.379 2.22814 394.553 2.6801C394.727 3.13205 394.815 3.6172 394.81 4.10641C394.798 5.07479 394.434 5.99969 393.796 6.68356C393.158 7.36744 392.296 7.75606 391.395 7.76641V7.74641ZM380.32 7.81641C379.862 7.82419 379.408 7.73253 378.984 7.54694C378.56 7.36135 378.176 7.08565 377.853 6.73641C377.525 6.40469 377.264 6.00309 377.088 5.55719C376.912 5.11128 376.824 4.63082 376.83 4.14641C376.821 3.64978 376.908 3.15658 377.084 2.69732C377.26 2.23806 377.522 1.82252 377.853 1.47641C378.169 1.11478 378.552 0.827608 378.976 0.633087C379.401 0.438567 379.858 0.340944 380.32 0.346409C380.773 0.343158 381.221 0.442049 381.636 0.636692C382.052 0.831335 382.424 1.1174 382.73 1.47641C383.055 1.82259 383.312 2.23578 383.484 2.69116C383.657 3.14654 383.742 3.63473 383.735 4.12641C383.73 5.09814 383.369 6.02856 382.729 6.71569C382.09 7.40281 381.224 7.79116 380.32 7.79641V7.81641Z" fill="#515A6C"/>
<path opacity="0.28" d="M421.846 19.2879C421.388 19.2957 420.934 19.204 420.51 19.0185C420.086 18.8329 419.702 18.5572 419.38 18.2079C419.05 17.877 418.789 17.4755 418.613 17.0294C418.436 16.5833 418.349 16.1025 418.356 15.6179C418.35 15.1246 418.438 14.6353 418.614 14.1796C418.79 13.724 419.05 13.3117 419.38 12.9679C419.696 12.6076 420.079 12.322 420.503 12.1292C420.928 11.9363 421.385 11.8406 421.846 11.8479C422.298 11.8428 422.747 11.9398 423.162 12.1328C423.577 12.3257 423.95 12.6102 424.256 12.9679C424.581 13.3144 424.837 13.7277 425.01 14.183C425.183 14.6383 425.268 15.1263 425.262 15.6179C425.257 16.5896 424.895 17.5201 424.256 18.2072C423.616 18.8943 422.75 19.2827 421.846 19.2879ZM421.846 31.0179C421.388 31.0257 420.934 30.934 420.51 30.7485C420.086 30.5629 419.702 30.2872 419.38 29.9379C419.049 29.6035 418.787 29.1986 418.611 28.7492C418.435 28.2997 418.348 27.8156 418.356 27.3279C418.37 26.3401 418.743 25.3974 419.395 24.7006C420.047 24.0039 420.927 23.6082 421.846 23.5979C422.298 23.5928 422.747 23.6898 423.162 23.8828C423.577 24.0757 423.95 24.3602 424.256 24.7179C424.578 25.0584 424.833 25.4649 425.006 25.9132C425.178 26.3616 425.265 26.8427 425.262 27.3279C425.262 28.3031 424.902 29.2387 424.262 29.9301C423.622 30.6215 422.754 31.0126 421.846 31.0179ZM421.846 7.81792C421.388 7.8257 420.934 7.73404 420.51 7.54845C420.086 7.36286 419.702 7.08717 419.38 6.73792C419.051 6.4062 418.79 6.00461 418.614 5.5587C418.438 5.11279 418.35 4.63234 418.356 4.14792C418.35 3.65465 418.438 3.16525 418.614 2.70963C418.79 2.254 419.05 1.84171 419.38 1.49792C419.696 1.1363 420.078 0.849123 420.502 0.654602C420.927 0.460081 421.384 0.362459 421.846 0.367924C422.298 0.362132 422.745 0.457891 423.16 0.649052C423.576 0.840212 423.949 1.12255 424.256 1.47792C424.581 1.82411 424.838 2.23729 425.011 2.69267C425.183 3.14805 425.269 3.63624 425.262 4.12793C425.257 5.09965 424.895 6.03008 424.256 6.7172C423.616 7.40432 422.75 7.79267 421.846 7.79792V7.81792Z" fill="#515A6C"/>
<path opacity="0.74" d="M452.307 19.2863C451.849 19.2936 451.395 19.2016 450.971 19.0161C450.547 18.8305 450.163 18.5551 449.84 18.2064C449.513 17.8739 449.253 17.4721 449.076 17.0264C448.9 16.5807 448.812 16.1006 448.817 15.6164C448.813 15.1234 448.902 14.6347 449.077 14.1794C449.253 13.7241 449.513 13.3115 449.84 12.9663C450.157 12.6065 450.54 12.3212 450.964 12.1284C451.389 11.9357 451.846 11.8396 452.307 11.8464C452.759 11.84 453.208 11.9364 453.623 12.1294C454.039 12.3225 454.411 12.6077 454.717 12.9663C455.042 13.3129 455.298 13.7261 455.471 14.1814C455.643 14.6367 455.729 15.1247 455.722 15.6164C455.717 16.5881 455.356 17.5185 454.716 18.2056C454.077 18.8928 453.211 19.2811 452.307 19.2863ZM463.382 7.74635C462.924 7.75355 462.47 7.66163 462.046 7.47608C461.622 7.29052 461.238 7.01513 460.915 6.66635C460.588 6.3354 460.329 5.93535 460.152 5.49135C459.976 5.04735 459.887 4.569 459.892 4.08635C459.908 3.09836 460.282 2.15602 460.933 1.45822C461.584 0.760415 462.462 0.361746 463.382 0.346349C463.836 0.341695 464.287 0.439904 464.703 0.634592C465.12 0.829279 465.494 1.11609 465.801 1.47635C466.125 1.81915 466.382 2.22889 466.554 2.68089C466.727 3.13288 466.813 3.61778 466.807 4.10635C466.799 5.07634 466.437 6.00421 465.797 6.68918C465.158 7.37415 464.294 7.76113 463.391 7.76635L463.382 7.74635Z" fill="#515A6C"/>
<path opacity="0.65" d="M482.796 19.2864C482.338 19.2942 481.884 19.2025 481.46 19.0169C481.036 18.8313 480.651 18.5557 480.329 18.2064C479.999 17.876 479.736 17.4748 479.558 17.0288C479.38 16.5827 479.291 16.1017 479.296 15.6164C479.292 15.1225 479.382 14.6328 479.559 14.1773C479.737 13.7217 479.999 13.3097 480.329 12.9664C480.646 12.6061 481.028 12.3205 481.453 12.1276C481.877 11.9348 482.335 11.8391 482.796 11.8464C483.248 11.8419 483.696 11.9392 484.111 12.1321C484.526 12.325 484.899 12.6092 485.206 12.9664C485.531 13.3129 485.787 13.7262 485.96 14.1815C486.132 14.6368 486.218 15.1248 486.211 15.6164C486.206 16.5881 485.845 17.5186 485.205 18.2057C484.566 18.8928 483.7 19.2812 482.796 19.2864ZM493.871 19.2864C493.412 19.2944 492.956 19.2029 492.53 19.0173C492.105 18.8317 491.719 18.556 491.395 18.2064C491.067 17.8739 490.807 17.4722 490.631 17.0265C490.455 16.5807 490.366 16.1006 490.371 15.6164C490.368 15.1235 490.456 14.6348 490.632 14.1795C490.808 13.7242 491.067 13.3116 491.395 12.9664C491.713 12.6058 492.097 12.3201 492.523 12.1273C492.95 11.9345 493.408 11.8389 493.871 11.8464C494.322 11.8414 494.768 11.9386 495.182 12.1316C495.596 12.3245 495.967 12.609 496.272 12.9664C496.596 13.3129 496.853 13.7262 497.025 14.1815C497.198 14.6368 497.284 15.1248 497.277 15.6164C497.272 16.5864 496.912 17.5154 496.274 18.2022C495.637 18.889 494.773 19.2785 493.871 19.2864ZM493.871 7.74641C493.412 7.75439 492.956 7.66286 492.53 7.4773C492.105 7.29174 491.719 7.01595 491.395 6.66641C491.068 6.33546 490.808 5.93541 490.632 5.49141C490.456 5.04741 490.367 4.56906 490.371 4.08641C490.388 3.09671 490.763 2.15291 491.416 1.45484C492.069 0.756767 492.949 0.359234 493.871 0.346409C494.322 0.343938 494.769 0.443225 495.183 0.637863C495.596 0.832501 495.967 1.11816 496.272 1.47641C496.596 1.81921 496.852 2.22895 497.025 2.68095C497.197 3.13294 497.283 3.61784 497.277 4.10641C497.27 5.07468 496.908 6.00107 496.271 6.68576C495.634 7.37045 494.772 7.75857 493.871 7.76641V7.74641ZM482.796 7.81641C482.338 7.82419 481.884 7.73253 481.46 7.54694C481.036 7.36135 480.651 7.08565 480.329 6.73641C479.999 6.40519 479.737 6.00391 479.559 5.55805C479.382 5.11219 479.292 4.63147 479.296 4.14641C479.29 3.64914 479.378 3.15568 479.555 2.69646C479.733 2.23724 479.996 1.82202 480.329 1.47641C480.645 1.11478 481.027 0.827608 481.452 0.633087C481.877 0.438567 482.334 0.340944 482.796 0.346409C483.248 0.343778 483.697 0.44295 484.112 0.637554C484.527 0.832158 484.9 1.11789 485.206 1.47641C485.531 1.82259 485.788 2.23578 485.96 2.69116C486.133 3.14654 486.218 3.63473 486.211 4.12641C486.206 5.09814 485.845 6.02856 485.205 6.71569C484.566 7.40281 483.7 7.79116 482.796 7.79641V7.81641Z" fill="#515A6C"/>
<path opacity="0.1" d="M513.266 31.018C512.808 31.0252 512.354 30.9333 511.93 30.7478C511.506 30.5622 511.122 30.2868 510.799 29.938C510.471 29.6021 510.21 29.197 510.034 28.7478C509.858 28.2987 509.77 27.8154 509.776 27.328C509.775 26.8415 509.865 26.3597 510.041 25.9113C510.217 25.463 510.475 25.0572 510.799 24.718C511.116 24.3582 511.499 24.0729 511.923 23.8801C512.348 23.6874 512.805 23.5913 513.266 23.598C513.718 23.5916 514.167 23.6881 514.582 23.8811C514.998 24.0742 515.371 24.3594 515.676 24.718C515.998 25.0585 516.253 25.465 516.425 25.9134C516.598 26.3617 516.685 26.8428 516.681 27.328C516.681 28.3032 516.322 29.2388 515.682 29.9302C515.042 30.6217 514.173 31.0128 513.266 31.018ZM524.341 31.018C523.883 31.0258 523.429 30.9342 523.005 30.7486C522.581 30.563 522.197 30.2873 521.874 29.938C521.544 29.6037 521.282 29.1987 521.106 28.7493C520.93 28.2998 520.843 27.8157 520.851 27.328C520.865 26.3402 521.238 25.3975 521.89 24.7007C522.542 24.004 523.421 23.6083 524.341 23.598C524.795 23.5915 525.245 23.6878 525.662 23.8808C526.079 24.0738 526.453 24.3591 526.76 24.718C527.082 25.0585 527.337 25.465 527.51 25.9134C527.682 26.3617 527.769 26.8428 527.766 27.328C527.766 28.3032 527.406 29.2388 526.766 29.9302C526.126 30.6217 525.258 31.0128 524.35 31.018H524.341ZM513.266 7.81804C512.808 7.82524 512.354 7.73332 511.93 7.54776C511.506 7.36221 511.122 7.08682 510.799 6.73804C510.472 6.40519 510.212 6.00339 510.036 5.55774C509.86 5.11209 509.771 4.63219 509.776 4.14804C509.772 3.65509 509.861 3.16639 510.036 2.71109C510.212 2.25579 510.472 1.84323 510.799 1.49804C511.116 1.1369 511.498 0.850048 511.922 0.655565C512.347 0.461081 512.804 0.363182 513.266 0.368039C513.717 0.361002 514.166 0.456198 514.581 0.647435C514.996 0.838673 515.369 1.12167 515.676 1.47804C516.001 1.82422 516.258 2.23741 516.43 2.69279C516.603 3.14817 516.688 3.63636 516.681 4.12804C516.676 5.09977 516.315 6.03019 515.675 6.71732C515.036 7.40444 514.17 7.79279 513.266 7.79804V7.81804Z" fill="#515A6C"/>
<path opacity="0.43" d="M543.746 19.2865C543.288 19.2954 542.833 19.2043 542.409 19.0187C541.985 18.833 541.601 18.5567 541.279 18.2065C540.949 17.8761 540.686 17.4749 540.508 17.0289C540.33 16.5829 540.241 16.1018 540.246 15.6165C540.242 15.1226 540.332 14.6329 540.509 14.1774C540.687 13.7218 540.949 13.3098 541.279 12.9665C541.595 12.6052 541.978 12.3189 542.402 12.126C542.827 11.9331 543.285 11.8379 543.746 11.8465C544.197 11.8415 544.644 11.9387 545.057 12.1317C545.471 12.3246 545.842 12.6091 546.147 12.9665C546.475 13.3112 546.733 13.7238 546.908 14.1794C547.082 14.635 547.168 15.124 547.161 15.6165C547.154 16.5874 546.792 17.5164 546.153 18.2029C545.514 18.8895 544.649 19.2787 543.746 19.2865ZM543.746 31.0165C543.288 31.0255 542.833 30.9343 542.409 30.7487C541.985 30.563 541.601 30.2867 541.279 29.9365C540.948 29.6026 540.685 29.198 540.507 28.7486C540.329 28.2992 540.24 27.8148 540.246 27.3265C540.245 26.839 540.336 26.3563 540.514 25.9076C540.691 25.459 540.952 25.0537 541.279 24.7165C541.595 24.3552 541.978 24.0689 542.402 23.876C542.827 23.6831 543.285 23.5879 543.746 23.5965C544.197 23.5915 544.644 23.6887 545.057 23.8817C545.471 24.0746 545.842 24.3591 546.147 24.7165C546.472 25.0551 546.729 25.461 546.903 25.9096C547.078 26.3583 547.166 26.8403 547.161 27.3265C547.159 28.3009 546.799 29.2349 546.159 29.9258C545.52 30.6167 544.653 31.0086 543.746 31.0165ZM543.746 7.81652C543.288 7.82545 542.833 7.73432 542.409 7.54867C541.985 7.36301 541.601 7.0867 541.279 6.73651C540.95 6.40529 540.688 6.00402 540.51 5.55816C540.332 5.1123 540.242 4.63158 540.246 4.14651C540.24 3.64925 540.328 3.15578 540.506 2.69657C540.683 2.23735 540.947 1.82213 541.279 1.47652C541.595 1.11391 541.977 0.826081 542.402 0.631485C542.826 0.436888 543.284 0.339823 543.746 0.346515C544.197 0.343421 544.645 0.44243 545.058 0.637108C545.472 0.831785 545.843 1.11778 546.147 1.47652C546.475 1.8208 546.734 2.23341 546.909 2.68908C547.083 3.14475 547.169 3.63388 547.161 4.12652C547.154 5.09744 546.792 6.02637 546.153 6.71293C545.514 7.3995 544.649 7.78867 543.746 7.79652V7.81652Z" fill="#515A6C"/>
<path opacity="0.72" d="M574.225 7.81791C573.767 7.82511 573.313 7.73319 572.889 7.54764C572.465 7.36208 572.081 7.08669 571.758 6.73791C571.431 6.40506 571.171 6.00326 570.995 5.55761C570.819 5.11197 570.73 4.63206 570.735 4.14791C570.731 3.65496 570.819 3.16626 570.995 2.71096C571.171 2.25566 571.431 1.8431 571.758 1.49791C572.074 1.13677 572.457 0.849919 572.881 0.655435C573.306 0.460952 573.763 0.363053 574.225 0.36791C574.675 0.362279 575.121 0.458157 575.535 0.649351C575.948 0.840545 576.32 1.1228 576.626 1.47791C576.951 1.82409 577.207 2.23728 577.38 2.69266C577.553 3.14804 577.638 3.63623 577.631 4.12791C577.631 5.10139 577.273 6.03543 576.635 6.72659C575.997 7.41774 575.131 7.81 574.225 7.81791Z" fill="#515A6C"/>
<path opacity="0.18" d="M633.583 19.2865C633.126 19.2937 632.671 19.2018 632.248 19.0162C631.824 18.8306 631.439 18.5553 631.117 18.2065C630.789 17.874 630.529 17.4723 630.353 17.0265C630.177 16.5808 630.088 16.1007 630.093 15.6165C630.089 15.1235 630.178 14.6348 630.354 14.1795C630.53 13.7242 630.789 13.3117 631.117 12.9665C631.433 12.6067 631.816 12.3213 632.241 12.1286C632.665 11.9358 633.122 11.8397 633.583 11.8465C634.036 11.8401 634.484 11.9365 634.9 12.1296C635.315 12.3226 635.688 12.6078 635.993 12.9665C636.318 13.313 636.574 13.7262 636.747 14.1815C636.92 14.6368 637.005 15.1249 636.999 15.6165C636.994 16.5882 636.632 17.5186 635.993 18.2058C635.353 18.8929 634.487 19.2812 633.583 19.2865ZM633.583 31.0165C633.126 31.0237 632.671 30.9318 632.248 30.7462C631.824 30.5606 631.439 30.2853 631.117 29.9365C630.788 29.6006 630.528 29.1954 630.351 28.7463C630.175 28.2972 630.087 27.8138 630.093 27.3265C630.092 26.8399 630.182 26.3581 630.358 25.9098C630.534 25.4614 630.792 25.0556 631.117 24.7165C631.433 24.3567 631.816 24.0713 632.241 23.8786C632.665 23.6858 633.122 23.5897 633.583 23.5965C634.036 23.5901 634.484 23.6865 634.9 23.8796C635.315 24.0726 635.688 24.3578 635.993 24.7165C636.315 25.0569 636.57 25.4634 636.743 25.9118C636.915 26.3602 637.002 26.8412 636.999 27.3265C636.999 28.3017 636.639 29.2372 635.999 29.9287C635.359 30.6201 634.491 31.0112 633.583 31.0165ZM644.658 7.74647C644.196 7.75775 643.736 7.66781 643.308 7.48213C642.879 7.29646 642.49 7.01894 642.164 6.66647C641.835 6.33704 641.574 5.93728 641.398 5.49293C641.221 5.04858 641.134 4.56948 641.14 4.08647C641.134 3.59905 641.221 3.11551 641.398 2.66631C641.574 2.21711 641.835 1.81199 642.164 1.47647C642.48 1.11533 642.862 0.82848 643.287 0.633996C643.711 0.439513 644.169 0.341614 644.63 0.346471C645.088 0.340254 645.541 0.43767 645.961 0.632368C646.381 0.827065 646.759 1.11468 647.068 1.47647C647.393 1.81927 647.649 2.22901 647.821 2.68101C647.994 3.133 648.08 3.6179 648.074 4.10647C648.066 5.07646 647.704 6.00434 647.065 6.68931C646.425 7.37428 645.561 7.76125 644.658 7.76647V7.74647Z" fill="#515A6C"/>
<path opacity="0.95" d="M664.062 31.0179C663.605 31.0257 663.15 30.934 662.726 30.7484C662.303 30.5628 661.918 30.2871 661.596 29.9379C661.264 29.604 661.001 29.1994 660.823 28.75C660.645 28.3006 660.557 27.8162 660.563 27.3279C660.562 26.8404 660.652 26.3576 660.83 25.909C661.008 25.4603 661.268 25.0551 661.596 24.7179C661.912 24.3576 662.295 24.0719 662.719 23.8791C663.144 23.6863 663.601 23.5905 664.062 23.5979C664.514 23.5934 664.963 23.6907 665.378 23.8836C665.793 24.0765 666.166 24.3607 666.473 24.7179C666.794 25.0583 667.049 25.4648 667.222 25.9132C667.394 26.3616 667.482 26.8427 667.478 27.3279C667.478 28.3031 667.118 29.2386 666.478 29.9301C665.838 30.6215 664.97 31.0126 664.062 31.0179ZM675.137 31.0179C674.678 31.0259 674.222 30.9343 673.797 30.7488C673.372 30.5632 672.985 30.2874 672.662 29.9379C672.333 29.602 672.072 29.1968 671.896 28.7477C671.72 28.2986 671.632 27.8152 671.638 27.3279C671.637 26.8413 671.727 26.3596 671.903 25.9112C672.079 25.4628 672.337 25.057 672.662 24.7179C672.98 24.3573 673.364 24.0716 673.79 23.8788C674.216 23.686 674.675 23.5904 675.137 23.5979C675.588 23.5929 676.035 23.6901 676.449 23.883C676.862 24.076 677.234 24.3605 677.538 24.7179C677.86 25.0583 678.115 25.4648 678.288 25.9132C678.46 26.3616 678.547 26.8427 678.543 27.3279C678.543 28.3014 678.185 29.2354 677.547 29.9266C676.909 30.6177 676.043 31.01 675.137 31.0179ZM664.062 7.81789C663.605 7.82567 663.15 7.73401 662.726 7.54842C662.303 7.36283 661.918 7.08714 661.596 6.73789C661.266 6.40667 661.004 6.0054 660.826 5.55954C660.648 5.11367 660.559 4.63295 660.563 4.14789C660.559 3.65398 660.648 3.16433 660.826 2.70874C661.003 2.25316 661.265 1.84119 661.596 1.49789C661.912 1.13627 662.294 0.849092 662.719 0.654572C663.143 0.460051 663.601 0.362428 664.062 0.367893C664.515 0.365263 664.963 0.464435 665.379 0.659039C665.794 0.853642 666.166 1.13938 666.473 1.49789C666.798 1.84408 667.054 2.25726 667.227 2.71264C667.4 3.16802 667.485 3.65621 667.478 4.14789C667.473 5.11962 667.111 6.05005 666.472 6.73717C665.832 7.42429 664.967 7.81264 664.062 7.81789Z" fill="#515A6C"/>
<path opacity="0.56" d="M694.532 19.2864C694.075 19.2936 693.621 19.2017 693.197 19.0161C692.773 18.8306 692.388 18.5552 692.066 18.2064C691.738 17.8739 691.478 17.4722 691.302 17.0265C691.126 16.5807 691.037 16.1006 691.042 15.6164C691.039 15.1235 691.127 14.6348 691.303 14.1795C691.479 13.7242 691.738 13.3116 692.066 12.9664C692.383 12.6066 692.765 12.3213 693.19 12.1285C693.614 11.9357 694.071 11.8397 694.532 11.8464C694.985 11.84 695.433 11.9365 695.849 12.1295C696.264 12.3225 696.637 12.6077 696.943 12.9664C697.267 13.3129 697.524 13.7262 697.696 14.1815C697.869 14.6368 697.954 15.1248 697.948 15.6164C697.943 16.5881 697.581 17.5186 696.942 18.2057C696.303 18.8928 695.437 19.2812 694.532 19.2864ZM694.532 31.0164C694.075 31.0236 693.621 30.9317 693.197 30.7461C692.773 30.5606 692.388 30.2852 692.066 29.9364C691.737 29.6005 691.477 29.1953 691.301 28.7462C691.124 28.2971 691.036 27.8137 691.042 27.3264C691.041 26.8398 691.132 26.3581 691.307 25.9097C691.483 25.4613 691.741 25.0555 692.066 24.7164C692.383 24.3566 692.765 24.0713 693.19 23.8785C693.614 23.6857 694.071 23.5897 694.532 23.5964C694.985 23.59 695.433 23.6865 695.849 23.8795C696.264 24.0725 696.637 24.3577 696.943 24.7164C697.264 25.0569 697.519 25.4634 697.692 25.9117C697.865 26.3601 697.952 26.8412 697.948 27.3264C697.948 28.3016 697.589 29.2372 696.949 29.9286C696.309 30.62 695.44 31.0111 694.532 31.0164ZM705.607 7.74641C705.15 7.75419 704.695 7.66253 704.272 7.47694C703.848 7.29135 703.463 7.01565 703.141 6.66641C702.812 6.33698 702.551 5.93722 702.375 5.49287C702.199 5.04851 702.111 4.56942 702.117 4.08641C702.111 3.59899 702.199 3.11545 702.375 2.66625C702.551 2.21705 702.812 1.81193 703.141 1.47641C703.457 1.11478 703.839 0.827608 704.264 0.633087C704.688 0.438567 705.146 0.340944 705.607 0.346409C706.059 0.341846 706.506 0.438162 706.921 0.629246C707.336 0.82033 707.709 1.10201 708.018 1.45641C708.342 1.79921 708.598 2.20895 708.771 2.66095C708.943 3.11294 709.029 3.59784 709.023 4.08641C709.015 5.0564 708.653 5.98427 708.014 6.66924C707.375 7.35421 706.51 7.74118 705.607 7.74641Z" fill="#515A6C"/>
<path opacity="0.38" d="M724.994 19.2865C724.536 19.2954 724.081 19.2043 723.657 19.0186C723.233 18.833 722.849 18.5566 722.527 18.2065C722.197 17.876 721.934 17.4749 721.756 17.0288C721.578 16.5828 721.489 16.1017 721.494 15.6165C721.49 15.1225 721.58 14.6329 721.757 14.1773C721.935 13.7217 722.197 13.3097 722.527 12.9665C722.843 12.6052 723.226 12.3189 723.65 12.126C724.075 11.9331 724.533 11.8379 724.994 11.8465C725.445 11.8415 725.892 11.9386 726.305 12.1316C726.719 12.3246 727.09 12.609 727.395 12.9665C727.721 13.3125 727.978 13.7254 728.153 14.1807C728.327 14.6359 728.414 15.1242 728.409 15.6165C728.402 16.5874 728.04 17.5163 727.401 18.2029C726.762 18.8894 725.897 19.2786 724.994 19.2865ZM724.994 31.0165C724.536 31.0254 724.081 30.9343 723.657 30.7486C723.233 30.563 722.849 30.2866 722.527 29.9365C722.196 29.6026 721.933 29.198 721.755 28.7486C721.577 28.2992 721.488 27.8148 721.494 27.3265C721.493 26.8389 721.584 26.3562 721.762 25.9075C721.939 25.4589 722.2 25.0537 722.527 24.7165C722.843 24.3552 723.226 24.0689 723.65 23.876C724.075 23.6831 724.533 23.5879 724.994 23.5965C725.445 23.5915 725.892 23.6886 726.305 23.8816C726.719 24.0746 727.09 24.359 727.395 24.7165C727.718 25.0564 727.974 25.4626 728.148 25.9109C728.323 26.3593 728.411 26.8406 728.409 27.3265C728.415 27.8128 728.327 28.2952 728.153 28.744C727.979 29.1928 727.721 29.5986 727.395 29.9365C727.085 30.2832 726.711 30.558 726.298 30.7437C725.885 30.9295 725.441 31.0223 724.994 31.0165ZM736.059 7.74646C735.602 7.75366 735.148 7.66174 734.724 7.47618C734.3 7.29063 733.916 7.01524 733.593 6.66646C733.266 6.3355 733.006 5.93546 732.83 5.49146C732.654 5.04746 732.565 4.56911 732.569 4.08646C732.586 3.09847 732.96 2.15612 733.611 1.45832C734.262 0.760524 735.14 0.361855 736.059 0.346458C736.516 0.340393 736.968 0.437919 737.386 0.632652C737.805 0.827384 738.181 1.11493 738.489 1.47646C738.813 1.81926 739.069 2.229 739.241 2.681C739.414 3.13299 739.5 3.61789 739.494 4.10646C739.486 5.07645 739.124 6.00432 738.485 6.68929C737.845 7.37426 736.981 7.76123 736.078 7.76646L736.059 7.74646ZM724.994 7.81646C724.536 7.82539 724.081 7.73427 723.657 7.54861C723.233 7.36295 722.849 7.08664 722.527 6.73646C722.198 6.40524 721.936 6.00396 721.758 5.5581C721.58 5.11224 721.49 4.63152 721.494 4.14646C721.49 3.65254 721.58 3.16289 721.757 2.70731C721.935 2.25173 722.197 1.83975 722.527 1.49646C722.843 1.13386 723.225 0.846024 723.649 0.651428C724.074 0.456831 724.532 0.359766 724.994 0.366458C725.447 0.358009 725.897 0.45252 726.314 0.643802C726.731 0.835084 727.106 1.11883 727.414 1.47646C727.74 1.82215 727.998 2.23502 728.172 2.69036C728.346 3.1457 728.433 3.63414 728.428 4.12646C728.421 5.09738 728.059 6.02631 727.42 6.71287C726.781 7.39944 725.916 7.78862 725.012 7.79646L724.994 7.81646Z" fill="#515A6C"/>
<path opacity="0.9" d="M766.558 19.2878C766.1 19.2956 765.646 19.204 765.222 19.0184C764.798 18.8328 764.413 18.5571 764.091 18.2079C763.76 17.8774 763.498 17.4763 763.32 17.0302C763.142 16.5842 763.053 16.1031 763.058 15.6178C763.054 15.1239 763.143 14.6343 763.321 14.1787C763.499 13.7231 763.761 13.3111 764.091 12.9678C764.408 12.6075 764.79 12.3219 765.215 12.1291C765.639 11.9363 766.097 11.8405 766.558 11.8479C767.01 11.8433 767.458 11.9407 767.873 12.1336C768.288 12.3265 768.661 12.6107 768.968 12.9678C769.293 13.3144 769.549 13.7276 769.721 14.1829C769.894 14.6382 769.98 15.1262 769.973 15.6178C769.968 16.5896 769.607 17.52 768.967 18.2071C768.328 18.8942 767.462 19.2826 766.558 19.2878ZM755.482 7.81785C755.025 7.82505 754.571 7.73313 754.147 7.54757C753.723 7.36202 753.339 7.08663 753.016 6.73785C752.688 6.40613 752.427 6.00453 752.251 5.55862C752.074 5.11272 751.986 4.63226 751.992 4.14785C751.987 3.65457 752.074 3.16518 752.25 2.70955C752.426 2.25393 752.687 1.84164 753.016 1.49785C753.332 1.13671 753.715 0.849856 754.139 0.655373C754.564 0.46089 755.021 0.362991 755.482 0.367848C755.935 0.364598 756.384 0.463488 756.799 0.658131C757.214 0.852774 757.587 1.13884 757.893 1.49785C758.218 1.84403 758.475 2.25722 758.647 2.7126C758.82 3.16798 758.905 3.65616 758.898 4.14785C758.893 5.11957 758.532 6.05 757.892 6.73713C757.253 7.42425 756.387 7.8126 755.482 7.81785Z" fill="#515A6C"/>
<path opacity="0.21" d="M785.962 31.0164C785.503 31.0243 785.048 30.9328 784.622 30.7472C784.197 30.5617 783.811 30.2859 783.487 29.9363C783.158 29.6005 782.898 29.1953 782.721 28.7462C782.545 28.297 782.457 27.8137 782.463 27.3263C782.462 26.8398 782.552 26.358 782.728 25.9096C782.904 25.4613 783.162 25.0555 783.487 24.7163C783.805 24.3558 784.189 24.0701 784.615 23.8773C785.041 23.6845 785.5 23.5888 785.962 23.5964C786.413 23.5914 786.86 23.6885 787.274 23.8815C787.688 24.0745 788.059 24.3589 788.364 24.7163C788.685 25.0568 788.94 25.4633 789.113 25.9117C789.285 26.36 789.373 26.8411 789.369 27.3263C789.369 28.2998 789.011 29.2339 788.373 29.925C787.735 30.6162 786.868 31.0084 785.962 31.0164ZM797.028 19.2863C796.571 19.2936 796.116 19.2016 795.693 19.0161C795.269 18.8305 794.884 18.5551 794.562 18.2064C794.234 17.8739 793.974 17.4721 793.798 17.0264C793.622 16.5807 793.533 16.1006 793.538 15.6164C793.534 15.1234 793.623 14.6347 793.799 14.1794C793.975 13.7241 794.234 13.3115 794.562 12.9663C794.879 12.6065 795.261 12.3212 795.686 12.1284C796.11 11.9357 796.567 11.8396 797.028 11.8464C797.481 11.84 797.929 11.9364 798.345 12.1294C798.76 12.3225 799.133 12.6077 799.439 12.9663C799.763 13.3129 800.019 13.7261 800.192 14.1814C800.365 14.6367 800.45 15.1247 800.444 15.6164C800.439 16.5881 800.077 17.5185 799.438 18.2056C798.798 18.8928 797.933 19.2811 797.028 19.2863ZM797.028 7.74635C796.571 7.75355 796.116 7.66163 795.693 7.47608C795.269 7.29052 794.884 7.01513 794.562 6.66635C794.235 6.3354 793.975 5.93535 793.799 5.49135C793.623 5.04735 793.534 4.569 793.538 4.08635C793.555 3.09836 793.928 2.15602 794.58 1.45822C795.231 0.760415 796.109 0.361746 797.028 0.346349C797.483 0.341695 797.933 0.439904 798.35 0.634592C798.767 0.829279 799.141 1.11609 799.448 1.47635C799.772 1.81915 800.028 2.22889 800.201 2.68089C800.374 3.13288 800.459 3.61778 800.453 4.10635C800.446 5.07634 800.083 6.00421 799.444 6.68918C798.805 7.37415 797.94 7.76113 797.038 7.76635L797.028 7.74635ZM785.962 7.81635C785.503 7.82433 785.048 7.7328 784.622 7.54724C784.197 7.36168 783.811 7.08589 783.487 6.73635C783.16 6.4035 782.9 6.0017 782.724 5.55605C782.548 5.1104 782.459 4.6305 782.463 4.14635C782.459 3.6534 782.548 3.1647 782.724 2.7094C782.9 2.2541 783.159 1.84154 783.487 1.49635C783.804 1.13445 784.188 0.847193 784.615 0.652704C785.041 0.458215 785.5 0.360713 785.962 0.36635C786.414 0.363255 786.861 0.462261 787.275 0.656938C787.689 0.851616 788.059 1.13761 788.364 1.49635C788.689 1.84253 788.945 2.25572 789.118 2.7111C789.291 3.16648 789.376 3.65466 789.369 4.14635C789.364 5.11635 789.004 6.04529 788.366 6.73213C787.729 7.41898 786.865 7.80848 785.962 7.81635Z" fill="#515A6C"/>
<path opacity="0.94" d="M827.507 19.2864C827.049 19.2953 826.594 19.2042 826.17 19.0185C825.746 18.8329 825.362 18.5566 825.04 18.2064C824.71 17.8759 824.447 17.4748 824.269 17.0288C824.091 16.5827 824.002 16.1016 824.007 15.6164C824.003 15.1225 824.093 14.6328 824.27 14.1772C824.448 13.7216 824.71 13.3097 825.04 12.9664C825.356 12.6051 825.738 12.3188 826.163 12.1259C826.588 11.933 827.046 11.8378 827.507 11.8464C827.958 11.8414 828.405 11.9385 828.818 12.1315C829.232 12.3245 829.603 12.609 829.908 12.9664C830.235 13.311 830.494 13.7237 830.669 14.1793C830.843 14.6349 830.929 15.1238 830.922 15.6164C830.915 16.5873 830.553 17.5162 829.914 18.2028C829.275 18.8894 828.41 19.2785 827.507 19.2864ZM827.507 7.74638C827.049 7.75531 826.594 7.66419 826.17 7.47853C825.746 7.29287 825.362 7.01656 825.04 6.66638C824.71 6.33744 824.448 5.93801 824.27 5.4937C824.092 5.0494 824.003 4.57004 824.007 4.08638C824.029 3.09828 824.405 2.15734 825.057 1.46033C825.709 0.763308 826.587 0.364173 827.507 0.346378C827.957 0.341366 828.403 0.437526 828.817 0.628681C829.23 0.819836 829.602 1.10176 829.908 1.45638C830.235 1.79726 830.494 2.20643 830.668 2.65871C830.843 3.111 830.929 3.59684 830.922 4.08638C830.91 5.05476 830.546 5.97966 829.908 6.66353C829.27 7.3474 828.408 7.73602 827.507 7.74638ZM816.432 7.81638C815.974 7.82415 815.52 7.7325 815.096 7.54691C814.672 7.36132 814.288 7.08562 813.965 6.73638C813.637 6.40466 813.376 6.00306 813.2 5.55716C813.024 5.11125 812.936 4.63079 812.942 4.14638C812.936 3.6531 813.024 3.16371 813.2 2.70808C813.376 2.25246 813.636 1.84017 813.965 1.49638C814.281 1.13475 814.664 0.847577 815.088 0.653056C815.513 0.458536 815.97 0.360913 816.432 0.366378C816.885 0.363128 817.333 0.462018 817.749 0.656661C818.164 0.851304 818.536 1.13737 818.842 1.49638C819.167 1.84256 819.424 2.25575 819.596 2.71113C819.769 3.16651 819.855 3.65469 819.847 4.14638C819.842 5.1181 819.481 6.04853 818.841 6.73566C818.202 7.42278 817.336 7.81113 816.432 7.81638Z" fill="#515A6C"/>
<path opacity="0.66" d="M846.912 19.2864C846.455 19.2936 846 19.2017 845.577 19.0162C845.153 18.8306 844.768 18.5552 844.446 18.2064C844.118 17.874 843.858 17.4722 843.682 17.0265C843.506 16.5808 843.417 16.1007 843.422 15.6164C843.418 15.1235 843.507 14.6348 843.683 14.1795C843.859 13.7242 844.118 13.3116 844.446 12.9664C844.762 12.6066 845.145 12.3213 845.57 12.1285C845.994 11.9358 846.451 11.8397 846.912 11.8464C847.365 11.84 847.813 11.9365 848.229 12.1295C848.644 12.3226 849.017 12.6078 849.322 12.9664C849.647 13.313 849.903 13.7262 850.076 14.1815C850.249 14.6368 850.334 15.1248 850.328 15.6164C850.323 16.5882 849.961 17.5186 849.322 18.2057C848.682 18.8928 847.816 19.2812 846.912 19.2864ZM857.987 7.74644C857.53 7.75364 857.075 7.66172 856.652 7.47617C856.228 7.29061 855.843 7.01522 855.521 6.66644C855.194 6.33549 854.934 5.93544 854.758 5.49144C854.582 5.04744 854.493 4.56909 854.497 4.08644C854.514 3.09845 854.887 2.15611 855.538 1.45831C856.19 0.760505 857.068 0.361836 857.987 0.346439C858.439 0.340647 858.886 0.436407 859.302 0.627567C859.717 0.818727 860.09 1.10106 860.398 1.45644C860.722 1.79924 860.978 2.20898 861.15 2.66098C861.323 3.11297 861.409 3.59787 861.403 4.08644C861.395 5.05643 861.033 5.9843 860.394 6.66927C859.754 7.35424 858.89 7.74122 857.987 7.74644Z" fill="#515A6C"/>
<path opacity="0.34" d="M877.381 19.2864C876.924 19.2942 876.469 19.2025 876.046 19.0169C875.622 18.8313 875.237 18.5556 874.915 18.2064C874.584 17.8759 874.322 17.4748 874.144 17.0288C873.966 16.5827 873.877 16.1016 873.882 15.6164C873.878 15.1225 873.967 14.6328 874.145 14.1772C874.323 13.7216 874.585 13.3097 874.915 12.9664C875.231 12.6061 875.614 12.3204 876.039 12.1276C876.463 11.9348 876.921 11.839 877.381 11.8464C877.834 11.8419 878.282 11.9392 878.697 12.1321C879.112 12.325 879.485 12.6092 879.792 12.9664C880.116 13.3129 880.373 13.7261 880.546 14.1814C880.718 14.6367 880.804 15.1248 880.797 15.6164C880.792 16.5881 880.431 17.5185 879.791 18.2057C879.152 18.8928 878.286 19.2811 877.381 19.2864ZM877.381 31.0164C876.924 31.0242 876.469 30.9325 876.046 30.7469C875.622 30.5613 875.237 30.2856 874.915 29.9364C874.583 29.6025 874.32 29.1979 874.142 28.7485C873.965 28.2991 873.876 27.8147 873.882 27.3264C873.881 26.8388 873.972 26.3561 874.149 25.9075C874.327 25.4588 874.587 25.0536 874.915 24.7164C875.231 24.3561 875.614 24.0704 876.039 23.8776C876.463 23.6848 876.921 23.589 877.381 23.5964C877.834 23.5919 878.282 23.6892 878.697 23.8821C879.112 24.075 879.485 24.3592 879.792 24.7164C880.114 25.0568 880.368 25.4633 880.541 25.9117C880.714 26.3601 880.801 26.8412 880.797 27.3264C880.797 28.3016 880.438 29.2371 879.798 29.9286C879.158 30.62 878.289 31.0111 877.381 31.0164ZM888.457 7.74638C887.997 7.75436 887.542 7.66283 887.116 7.47727C886.691 7.29171 886.305 7.01592 885.981 6.66638C885.654 6.33542 885.394 5.93538 885.218 5.49138C885.042 5.04738 884.953 4.56903 884.957 4.08638C884.974 3.09668 885.349 2.15288 886.002 1.45481C886.655 0.756736 887.535 0.359202 888.457 0.346378C888.907 0.341366 889.353 0.437526 889.766 0.628681C890.18 0.819836 890.551 1.10176 890.858 1.45638C891.182 1.79918 891.438 2.20892 891.611 2.66091C891.783 3.11291 891.869 3.5978 891.863 4.08638C891.856 5.05465 891.494 5.98103 890.857 6.66573C890.22 7.35042 889.358 7.73854 888.457 7.74638Z" fill="#515A6C"/>
<path opacity="0.53" d="M907.852 19.2865C907.394 19.2937 906.94 19.2018 906.516 19.0162C906.092 18.8306 905.708 18.5553 905.385 18.2065C905.058 17.874 904.798 17.4723 904.621 17.0265C904.445 16.5808 904.357 16.1007 904.362 15.6165C904.358 15.1235 904.447 14.6348 904.622 14.1795C904.798 13.7242 905.058 13.3117 905.385 12.9665C905.702 12.6067 906.085 12.3213 906.509 12.1286C906.934 11.9358 907.391 11.8397 907.852 11.8465C908.304 11.8401 908.753 11.9365 909.168 12.1296C909.584 12.3226 909.956 12.6078 910.262 12.9665C910.587 13.313 910.843 13.7262 911.016 14.1815C911.188 14.6368 911.274 15.1249 911.267 15.6165C911.262 16.5882 910.901 17.5186 910.261 18.2058C909.622 18.8929 908.756 19.2812 907.852 19.2865ZM907.852 31.0165C907.394 31.0237 906.94 30.9318 906.516 30.7462C906.092 30.5606 905.708 30.2853 905.385 29.9365C905.057 29.6006 904.796 29.1954 904.62 28.7463C904.444 28.2972 904.356 27.8138 904.362 27.3265C904.361 26.8399 904.451 26.3581 904.627 25.9098C904.803 25.4614 905.061 25.0556 905.385 24.7165C905.702 24.3567 906.085 24.0713 906.509 23.8786C906.934 23.6858 907.391 23.5897 907.852 23.5965C908.304 23.5901 908.753 23.6865 909.168 23.8796C909.584 24.0726 909.956 24.3578 910.262 24.7165C910.584 25.0569 910.839 25.4634 911.011 25.9118C911.184 26.3602 911.271 26.8412 911.267 27.3265C911.267 28.3017 910.908 29.2372 910.268 29.9287C909.628 30.6201 908.759 31.0112 907.852 31.0165ZM918.927 7.74647C918.469 7.75425 918.015 7.66259 917.591 7.477C917.167 7.29141 916.783 7.01572 916.46 6.66647C916.132 6.33704 915.871 5.93728 915.694 5.49293C915.518 5.04858 915.43 4.56948 915.437 4.08647C915.43 3.59905 915.518 3.11551 915.694 2.66631C915.87 2.21711 916.131 1.81199 916.46 1.47647C916.776 1.11485 917.158 0.82767 917.583 0.63315C918.008 0.438629 918.465 0.341006 918.927 0.346471C919.384 0.340254 919.838 0.43767 920.258 0.632368C920.678 0.827065 921.055 1.11468 921.365 1.47647C921.689 1.81927 921.945 2.22901 922.118 2.68101C922.291 3.133 922.376 3.6179 922.37 4.10647C922.363 5.07646 922 6.00434 921.361 6.68931C920.722 7.37428 919.857 7.76125 918.955 7.76647L918.927 7.74647Z" fill="#515A6C"/>
<path opacity="0.77" d="M949.397 19.288C948.94 19.2952 948.485 19.2033 948.062 19.0177C947.638 18.8322 947.253 18.5568 946.931 18.208C946.603 17.8755 946.343 17.4738 946.167 17.0281C945.991 16.5823 945.902 16.1022 945.907 15.618C945.903 15.1251 945.992 14.6363 946.168 14.181C946.344 13.7258 946.603 13.3132 946.931 12.968C947.248 12.6082 947.63 12.3229 948.055 12.1301C948.479 11.9373 948.936 11.8413 949.397 11.848C949.85 11.8416 950.299 11.9381 950.714 12.1311C951.129 12.3241 951.502 12.6093 951.808 12.968C952.132 13.3145 952.389 13.7278 952.561 14.1831C952.734 14.6384 952.82 15.1264 952.813 15.618C952.808 16.5897 952.446 17.5202 951.807 18.2073C951.167 18.8944 950.302 19.2827 949.397 19.288ZM938.332 7.818C937.874 7.82693 937.419 7.73581 936.995 7.55015C936.571 7.3645 936.187 7.08818 935.865 6.738C935.535 6.40678 935.273 6.00551 935.095 5.55964C934.918 5.11378 934.828 4.63306 934.832 4.148C934.828 3.65408 934.917 3.16443 935.095 2.70885C935.273 2.25327 935.535 1.84129 935.865 1.498C936.18 1.1354 936.563 0.847565 936.987 0.652969C937.412 0.458373 937.87 0.361307 938.332 0.368C938.783 0.364905 939.23 0.463911 939.644 0.658588C940.058 0.853266 940.429 1.13926 940.733 1.498C941.061 1.84228 941.32 2.25489 941.494 2.71056C941.669 3.16623 941.755 3.65536 941.747 4.148C941.74 5.11892 941.378 6.04785 940.739 6.73442C940.1 7.42098 939.235 7.81016 938.332 7.818Z" fill="#515A6C"/>
<path opacity="0.91" d="M979.858 19.2864C979.4 19.2942 978.946 19.2025 978.522 19.0169C978.099 18.8313 977.714 18.5557 977.392 18.2064C977.061 17.876 976.798 17.4748 976.62 17.0288C976.442 16.5827 976.353 16.1017 976.359 15.6164C976.355 15.1225 976.444 14.6328 976.622 14.1773C976.799 13.7217 977.061 13.3097 977.392 12.9664C977.708 12.6061 978.091 12.3205 978.515 12.1276C978.94 11.9348 979.397 11.8391 979.858 11.8464C980.309 11.8414 980.756 11.9386 981.17 12.1316C981.583 12.3245 981.955 12.609 982.259 12.9664C982.587 13.311 982.846 13.7237 983.02 14.1793C983.195 14.6349 983.281 15.1239 983.274 15.6164C983.266 16.5873 982.904 17.5163 982.265 18.2028C981.626 18.8894 980.762 19.2786 979.858 19.2864ZM979.858 31.0164C979.4 31.0242 978.946 30.9325 978.522 30.7469C978.099 30.5614 977.714 30.2857 977.392 29.9364C977.06 29.6025 976.797 29.1979 976.619 28.7485C976.441 28.2991 976.352 27.8147 976.359 27.3264C976.357 26.8389 976.448 26.3561 976.626 25.9075C976.804 25.4588 977.064 25.0536 977.392 24.7164C977.708 24.3561 978.091 24.0705 978.515 23.8776C978.94 23.6848 979.397 23.5891 979.858 23.5964C980.309 23.5914 980.756 23.6886 981.17 23.8816C981.583 24.0745 981.955 24.359 982.259 24.7164C982.584 25.055 982.841 25.4609 983.016 25.9095C983.19 26.3582 983.278 26.8402 983.274 27.3264C983.271 28.3008 982.911 29.2348 982.272 29.9257C981.632 30.6166 980.765 31.0085 979.858 31.0164ZM979.858 7.81641C979.4 7.82419 978.946 7.73253 978.522 7.54694C978.099 7.36135 977.714 7.08565 977.392 6.73641C977.062 6.40519 976.8 6.00391 976.622 5.55805C976.444 5.11219 976.355 4.63147 976.359 4.14641C976.352 3.64914 976.44 3.15568 976.618 2.69646C976.796 2.23724 977.059 1.82202 977.392 1.47641C977.708 1.11478 978.09 0.827608 978.515 0.633087C978.939 0.438567 979.397 0.340944 979.858 0.346409C980.31 0.343314 980.757 0.442323 981.17 0.637001C981.584 0.831679 981.955 1.11767 982.259 1.47641C982.587 1.82069 982.846 2.2333 983.021 2.68897C983.195 3.14464 983.281 3.63377 983.274 4.12641C983.266 5.09733 982.904 6.02626 982.265 6.71283C981.626 7.39939 980.762 7.78857 979.858 7.79641V7.81641Z" fill="#515A6C"/>
<path opacity="0.14" d="M1021.4 19.2878C1020.95 19.2956 1020.49 19.204 1020.07 19.0184C1019.64 18.8328 1019.26 18.5571 1018.94 18.2079C1018.61 17.8769 1018.35 17.4754 1018.17 17.0294C1017.99 16.5833 1017.91 16.1024 1017.91 15.6178C1017.91 15.1246 1018 14.6352 1018.17 14.1796C1018.35 13.7239 1018.61 13.3116 1018.94 12.9678C1019.25 12.6075 1019.64 12.3219 1020.06 12.1291C1020.49 11.9363 1020.94 11.8405 1021.4 11.8479C1021.86 11.8427 1022.3 11.9397 1022.72 12.1327C1023.13 12.3256 1023.51 12.6102 1023.81 12.9678C1024.14 13.3144 1024.39 13.7276 1024.57 14.1829C1024.74 14.6382 1024.83 15.1262 1024.82 15.6178C1024.81 16.5896 1024.45 17.52 1023.81 18.2071C1023.17 18.8942 1022.31 19.2826 1021.4 19.2878ZM1010.33 7.81785C1009.87 7.82505 1009.42 7.73313 1008.99 7.54757C1008.57 7.36202 1008.18 7.08663 1007.86 6.73785C1007.54 6.405 1007.28 6.0032 1007.1 5.55755C1006.92 5.1119 1006.83 4.632 1006.84 4.14785C1006.83 3.6549 1006.92 3.16619 1007.1 2.7109C1007.28 2.2556 1007.53 1.84304 1007.86 1.49785C1008.18 1.13671 1008.56 0.849856 1008.99 0.655373C1009.41 0.46089 1009.87 0.362991 1010.33 0.367848C1010.78 0.363345 1011.23 0.461669 1011.65 0.656392C1012.06 0.851114 1012.43 1.13785 1012.74 1.49785C1013.06 1.84403 1013.32 2.25722 1013.49 2.7126C1013.67 3.16798 1013.75 3.65616 1013.74 4.14785C1013.74 5.11957 1013.38 6.05 1012.74 6.73713C1012.1 7.42425 1011.23 7.8126 1010.33 7.81785Z" fill="#515A6C"/>
<path opacity="0.3" d="M1051.87 7.74644C1051.42 7.75364 1050.96 7.66172 1050.54 7.47617C1050.11 7.29061 1049.73 7.01522 1049.41 6.66644C1049.08 6.33549 1048.82 5.93544 1048.64 5.49144C1048.47 5.04744 1048.38 4.56909 1048.38 4.08644C1048.4 3.09845 1048.77 2.15611 1049.43 1.45831C1050.08 0.760505 1050.95 0.361836 1051.87 0.346439C1052.33 0.340647 1052.77 0.436407 1053.19 0.627567C1053.6 0.818727 1053.98 1.10106 1054.28 1.45644C1054.61 1.79924 1054.86 2.20898 1055.04 2.66098C1055.21 3.11297 1055.3 3.59787 1055.29 4.08644C1055.28 5.05643 1054.92 5.9843 1054.28 6.66927C1053.64 7.35424 1052.78 7.74122 1051.87 7.74644ZM1040.81 7.81644C1040.35 7.82537 1039.9 7.73425 1039.47 7.54859C1039.05 7.36294 1038.66 7.08662 1038.34 6.73644C1038.01 6.40522 1037.75 6.00395 1037.57 5.55808C1037.39 5.11222 1037.3 4.6315 1037.31 4.14644C1037.3 3.65252 1037.39 3.16287 1037.57 2.70729C1037.75 2.25171 1038.01 1.83973 1038.34 1.49644C1038.66 1.13384 1039.04 0.846005 1039.46 0.651409C1039.89 0.456813 1040.35 0.359747 1040.81 0.36644C1041.26 0.363345 1041.71 0.462351 1042.12 0.657028C1042.53 0.851706 1042.91 1.1377 1043.21 1.49644C1043.54 1.84213 1043.79 2.255 1043.97 2.71034C1044.14 3.16568 1044.23 3.65412 1044.22 4.14644C1044.22 5.11736 1043.85 6.04629 1043.22 6.73286C1042.58 7.41942 1041.71 7.8086 1040.81 7.81644Z" fill="#515A6C"/>
<path opacity="0.28" d="M1071.28 19.2864C1070.82 19.2942 1070.37 19.2025 1069.94 19.0169C1069.52 18.8313 1069.13 18.5557 1068.81 18.2064C1068.48 17.8755 1068.22 17.474 1068.05 17.0279C1067.87 16.5818 1067.78 16.101 1067.79 15.6164C1067.78 15.1231 1067.87 14.6337 1068.05 14.1781C1068.22 13.7225 1068.48 13.3102 1068.81 12.9664C1069.13 12.6061 1069.51 12.3205 1069.94 12.1276C1070.36 11.9348 1070.82 11.8391 1071.28 11.8464C1071.73 11.8413 1072.18 11.9383 1072.59 12.1312C1073.01 12.3242 1073.38 12.6087 1073.69 12.9664C1074.01 13.3129 1074.27 13.7262 1074.44 14.1815C1074.62 14.6368 1074.7 15.1248 1074.69 15.6164C1074.69 16.5881 1074.33 17.5186 1073.69 18.2057C1073.05 18.8928 1072.18 19.2812 1071.28 19.2864ZM1071.28 31.0164C1070.82 31.0242 1070.37 30.9325 1069.94 30.7469C1069.52 30.5614 1069.13 30.2857 1068.81 29.9364C1068.48 29.602 1068.22 29.1971 1068.04 28.7477C1067.87 28.2982 1067.78 27.8141 1067.79 27.3264C1067.8 26.3386 1068.18 25.3958 1068.83 24.6991C1069.48 24.0024 1070.36 23.6067 1071.28 23.5964C1071.73 23.5913 1072.18 23.6883 1072.59 23.8812C1073.01 24.0742 1073.38 24.3587 1073.69 24.7164C1074.01 25.0569 1074.27 25.4634 1074.44 25.9117C1074.61 26.3601 1074.7 26.8412 1074.69 27.3264C1074.69 28.3016 1074.33 29.2372 1073.69 29.9286C1073.05 30.62 1072.19 31.0111 1071.28 31.0164ZM1082.37 19.2864C1081.91 19.2942 1081.46 19.2025 1081.04 19.0169C1080.61 18.8313 1080.23 18.5557 1079.91 18.2064C1079.58 17.876 1079.31 17.4748 1079.13 17.0288C1078.96 16.5827 1078.87 16.1017 1078.87 15.6164C1078.87 15.1225 1078.96 14.6328 1079.14 14.1773C1079.31 13.7217 1079.58 13.3097 1079.91 12.9664C1080.22 12.6061 1080.6 12.3205 1081.03 12.1276C1081.45 11.9348 1081.91 11.8391 1082.37 11.8464C1082.82 11.8419 1083.27 11.9392 1083.69 12.1321C1084.1 12.325 1084.48 12.6092 1084.78 12.9664C1085.11 13.3129 1085.36 13.7262 1085.54 14.1815C1085.71 14.6368 1085.79 15.1248 1085.79 15.6164C1085.78 16.5881 1085.42 17.5186 1084.78 18.2057C1084.14 18.8928 1083.28 19.2812 1082.37 19.2864ZM1082.37 7.74641C1081.91 7.75419 1081.46 7.66253 1081.04 7.47694C1080.61 7.29135 1080.23 7.01565 1079.91 6.66641C1079.58 6.33747 1079.31 5.93804 1079.14 5.49373C1078.96 5.04943 1078.87 4.57007 1078.87 4.08641C1078.87 3.59835 1078.96 3.11454 1079.14 2.66539C1079.31 2.21623 1079.58 1.81143 1079.91 1.47641C1080.22 1.11478 1080.6 0.827608 1081.03 0.633087C1081.45 0.438567 1081.91 0.340944 1082.37 0.346409C1082.82 0.342454 1083.27 0.439046 1083.69 0.630093C1084.1 0.821139 1084.47 1.10249 1084.78 1.45641C1085.11 1.79921 1085.36 2.20895 1085.54 2.66095C1085.71 3.11294 1085.79 3.59784 1085.79 4.08641C1085.79 4.56743 1085.71 5.04454 1085.53 5.48828C1085.36 5.93203 1085.11 6.33299 1084.78 6.66641C1084.47 7.01251 1084.1 7.28671 1083.68 7.47237C1083.27 7.65802 1082.82 7.75126 1082.37 7.74641Z" fill="#515A6C"/>
<path opacity="0.34" d="M1101.76 31.0179C1101.3 31.0259 1100.84 30.9344 1100.42 30.7488C1099.99 30.5632 1099.61 30.2874 1099.28 29.9379C1098.95 29.602 1098.69 29.1968 1098.52 28.7477C1098.34 28.2986 1098.25 27.8152 1098.26 27.3279C1098.26 26.8413 1098.35 26.3596 1098.52 25.9112C1098.7 25.4628 1098.96 25.057 1099.28 24.7179C1099.6 24.3573 1099.98 24.0716 1100.41 23.8788C1100.84 23.686 1101.3 23.5904 1101.76 23.5979C1102.21 23.5929 1102.66 23.6901 1103.07 23.8831C1103.48 24.076 1103.85 24.3605 1104.16 24.7179C1104.48 25.0584 1104.74 25.4649 1104.91 25.9132C1105.08 26.3616 1105.17 26.8427 1105.16 27.3279C1105.16 28.3014 1104.81 29.2354 1104.17 29.9266C1103.53 30.6177 1102.66 31.01 1101.76 31.0179ZM1112.82 31.0179C1112.37 31.0251 1111.91 30.9332 1111.49 30.7476C1111.06 30.5621 1110.68 30.2867 1110.36 29.9379C1110.03 29.602 1109.77 29.1968 1109.59 28.7477C1109.42 28.2986 1109.33 27.8152 1109.33 27.3279C1109.33 26.8413 1109.42 26.3596 1109.6 25.9112C1109.77 25.4628 1110.03 25.057 1110.36 24.7179C1110.67 24.3581 1111.06 24.0728 1111.48 23.88C1111.91 23.6872 1112.36 23.5912 1112.82 23.5979C1113.28 23.5915 1113.72 23.688 1114.14 23.881C1114.56 24.074 1114.93 24.3592 1115.23 24.7179C1115.56 25.0584 1115.81 25.4649 1115.98 25.9132C1116.16 26.3616 1116.24 26.8427 1116.24 27.3279C1116.24 28.3031 1115.88 29.2386 1115.24 29.9301C1114.6 30.6215 1113.73 31.0126 1112.82 31.0179ZM1101.76 7.81791C1101.3 7.82589 1100.84 7.73436 1100.42 7.5488C1099.99 7.36324 1099.61 7.08744 1099.28 6.73791C1098.96 6.40506 1098.7 6.00325 1098.52 5.55761C1098.34 5.11196 1098.25 4.63206 1098.26 4.14791C1098.25 3.65496 1098.34 3.16625 1098.52 2.71096C1098.7 2.25566 1098.95 1.8431 1099.28 1.49791C1099.6 1.13601 1099.98 0.84875 1100.41 0.654261C1100.84 0.459772 1101.29 0.36227 1101.76 0.367907C1102.21 0.364812 1102.66 0.463818 1103.07 0.658495C1103.48 0.853173 1103.86 1.13917 1104.16 1.49791C1104.48 1.84409 1104.74 2.25728 1104.91 2.71266C1105.09 3.16804 1105.17 3.65622 1105.16 4.14791C1105.16 5.11791 1104.8 6.04685 1104.16 6.73369C1103.52 7.42053 1102.66 7.81004 1101.76 7.81791Z" fill="#515A6C"/>
<path opacity="0.67" d="M1132.23 19.2864C1131.77 19.2942 1131.32 19.2025 1130.89 19.0169C1130.47 18.8313 1130.08 18.5556 1129.76 18.2064C1129.43 17.8754 1129.17 17.474 1128.99 17.0279C1128.82 16.5818 1128.73 16.101 1128.74 15.6164C1128.73 15.1231 1128.82 14.6337 1129 14.1781C1129.17 13.7225 1129.43 13.3102 1129.76 12.9664C1130.08 12.6061 1130.46 12.3204 1130.89 12.1276C1131.31 11.9348 1131.77 11.839 1132.23 11.8464C1132.68 11.8412 1133.13 11.9383 1133.54 12.1312C1133.96 12.3242 1134.33 12.6087 1134.64 12.9664C1134.96 13.3129 1135.22 13.7261 1135.39 14.1814C1135.56 14.6367 1135.65 15.1248 1135.64 15.6164C1135.64 16.5881 1135.28 17.5185 1134.64 18.2057C1134 18.8928 1133.13 19.2811 1132.23 19.2864ZM1132.23 31.0164C1131.77 31.0242 1131.32 30.9325 1130.89 30.7469C1130.47 30.5613 1130.08 30.2856 1129.76 29.9364C1129.43 29.602 1129.17 29.1971 1128.99 28.7476C1128.82 28.2982 1128.73 27.8141 1128.74 27.3264C1128.75 26.3385 1129.13 25.3958 1129.78 24.6991C1130.43 24.0023 1131.31 23.6067 1132.23 23.5964C1132.68 23.5912 1133.13 23.6883 1133.54 23.8812C1133.96 24.0742 1134.33 24.3587 1134.64 24.7164C1134.96 25.0568 1135.21 25.4633 1135.39 25.9117C1135.56 26.3601 1135.65 26.8412 1135.64 27.3264C1135.64 28.3016 1135.28 29.2371 1134.64 29.9286C1134 30.62 1133.14 31.0111 1132.23 31.0164ZM1143.3 7.74638C1142.85 7.75531 1142.39 7.66419 1141.97 7.47853C1141.54 7.29287 1141.16 7.01656 1140.84 6.66638C1140.51 6.33744 1140.24 5.93801 1140.07 5.4937C1139.89 5.0494 1139.8 4.57004 1139.8 4.08638C1139.82 3.09828 1140.2 2.15734 1140.85 1.46033C1141.51 0.763308 1142.38 0.364173 1143.3 0.346378C1143.75 0.341366 1144.2 0.437526 1144.61 0.628681C1145.03 0.819836 1145.4 1.10176 1145.7 1.45638C1146.03 1.79726 1146.29 2.20643 1146.46 2.65871C1146.64 3.111 1146.73 3.59684 1146.72 4.08638C1146.71 5.05476 1146.34 5.97966 1145.7 6.66353C1145.07 7.3474 1144.2 7.73602 1143.3 7.74638Z" fill="#515A6C"/>
<path opacity="0.41" d="M1191.6 19.2864C1191.14 19.2936 1190.68 19.2017 1190.26 19.0161C1189.84 18.8306 1189.45 18.5552 1189.13 18.2064C1188.8 17.8739 1188.54 17.4722 1188.37 17.0265C1188.19 16.5807 1188.1 16.1006 1188.11 15.6164C1188.1 15.1235 1188.19 14.6348 1188.37 14.1795C1188.54 13.7242 1188.8 13.3116 1189.13 12.9664C1189.45 12.6066 1189.83 12.3213 1190.25 12.1285C1190.68 11.9357 1191.13 11.8397 1191.6 11.8464C1192.05 11.84 1192.5 11.9365 1192.91 12.1295C1193.33 12.3225 1193.7 12.6077 1194.01 12.9664C1194.33 13.3129 1194.59 13.7262 1194.76 14.1815C1194.93 14.6368 1195.02 15.1248 1195.01 15.6164C1195.01 16.5881 1194.64 17.5186 1194.01 18.2057C1193.37 18.8928 1192.5 19.2812 1191.6 19.2864ZM1191.6 31.0164C1191.14 31.0236 1190.68 30.9317 1190.26 30.7461C1189.84 30.5606 1189.45 30.2852 1189.13 29.9364C1188.8 29.6005 1188.54 29.1953 1188.36 28.7462C1188.19 28.2971 1188.1 27.8137 1188.11 27.3264C1188.1 26.8398 1188.2 26.3581 1188.37 25.9097C1188.55 25.4613 1188.8 25.0555 1189.13 24.7164C1189.45 24.3566 1189.83 24.0713 1190.25 23.8785C1190.68 23.6857 1191.13 23.5897 1191.6 23.5964C1192.05 23.59 1192.5 23.6865 1192.91 23.8795C1193.33 24.0725 1193.7 24.3577 1194.01 24.7164C1194.33 25.0569 1194.58 25.4634 1194.76 25.9117C1194.93 26.3601 1195.02 26.8412 1195.01 27.3264C1195.01 28.3016 1194.65 29.2372 1194.01 29.9286C1193.37 30.62 1192.5 31.0111 1191.6 31.0164ZM1202.67 7.74641C1202.21 7.75419 1201.76 7.66253 1201.33 7.47694C1200.91 7.29135 1200.53 7.01565 1200.2 6.66641C1199.88 6.33698 1199.61 5.93722 1199.44 5.49287C1199.26 5.04851 1199.17 4.56942 1199.18 4.08641C1199.17 3.59899 1199.26 3.11545 1199.44 2.66625C1199.61 2.21705 1199.88 1.81193 1200.2 1.47641C1200.52 1.11478 1200.9 0.827608 1201.33 0.633087C1201.75 0.438567 1202.21 0.340944 1202.67 0.346409C1203.12 0.341846 1203.57 0.438162 1203.98 0.629246C1204.4 0.82033 1204.77 1.10201 1205.08 1.45641C1205.41 1.79921 1205.66 2.20895 1205.83 2.66095C1206.01 3.11294 1206.09 3.59784 1206.09 4.08641C1206.08 5.0564 1205.72 5.98427 1205.08 6.66924C1204.44 7.35421 1203.57 7.74118 1202.67 7.74641Z" fill="#515A6C"/>
<path opacity="0.49" d="M1233.14 19.2879C1232.68 19.2951 1232.23 19.2032 1231.8 19.0176C1231.38 18.8321 1231 18.5567 1230.67 18.2079C1230.35 17.8754 1230.09 17.4737 1229.91 17.028C1229.73 16.5822 1229.65 16.1021 1229.65 15.6179C1229.65 15.125 1229.74 14.6363 1229.91 14.181C1230.09 13.7257 1230.35 13.3131 1230.67 12.9679C1230.99 12.6081 1231.37 12.3228 1231.8 12.13C1232.22 11.9372 1232.68 11.8412 1233.14 11.8479C1233.59 11.8415 1234.04 11.938 1234.46 12.131C1234.87 12.324 1235.25 12.6092 1235.55 12.9679C1235.88 13.3144 1236.13 13.7277 1236.3 14.183C1236.48 14.6383 1236.56 15.1263 1236.56 15.6179C1236.55 16.5896 1236.19 17.5201 1235.55 18.2072C1234.91 18.8943 1234.04 19.2827 1233.14 19.2879ZM1222.07 7.81791C1221.62 7.82589 1221.16 7.73436 1220.73 7.5488C1220.31 7.36324 1219.92 7.08744 1219.6 6.73791C1219.27 6.40506 1219.01 6.00325 1218.84 5.55761C1218.66 5.11196 1218.57 4.63206 1218.58 4.14791C1218.57 3.65496 1218.66 3.16625 1218.84 2.71096C1219.01 2.25566 1219.27 1.8431 1219.6 1.49791C1219.92 1.13601 1220.3 0.84875 1220.73 0.654261C1221.15 0.459772 1221.61 0.36227 1222.07 0.367907C1222.53 0.364812 1222.97 0.463818 1223.39 0.658495C1223.8 0.853173 1224.17 1.13917 1224.48 1.49791C1224.8 1.84409 1225.06 2.25728 1225.23 2.71266C1225.4 3.16804 1225.49 3.65622 1225.48 4.14791C1225.48 5.11791 1225.12 6.04685 1224.48 6.73369C1223.84 7.42053 1222.98 7.81004 1222.07 7.81791Z" fill="#515A6C"/>
<path opacity="0.22" d="M1263.62 19.2864C1263.16 19.2942 1262.71 19.2025 1262.28 19.0169C1261.86 18.8313 1261.48 18.5557 1261.15 18.2064C1260.82 17.876 1260.56 17.4748 1260.38 17.0288C1260.2 16.5827 1260.12 16.1017 1260.12 15.6164C1260.12 15.1225 1260.21 14.6328 1260.38 14.1773C1260.56 13.7217 1260.82 13.3097 1261.15 12.9664C1261.47 12.6061 1261.85 12.3205 1262.28 12.1276C1262.7 11.9348 1263.16 11.8391 1263.62 11.8464C1264.07 11.8414 1264.52 11.9386 1264.93 12.1316C1265.35 12.3245 1265.72 12.609 1266.02 12.9664C1266.35 13.311 1266.61 13.7237 1266.78 14.1793C1266.96 14.6349 1267.04 15.1239 1267.04 15.6164C1267.03 16.5873 1266.67 17.5163 1266.03 18.2028C1265.39 18.8894 1264.52 19.2786 1263.62 19.2864ZM1263.62 7.74641C1263.16 7.75419 1262.71 7.66253 1262.28 7.47694C1261.86 7.29135 1261.48 7.01565 1261.15 6.66641C1260.82 6.33747 1260.56 5.93804 1260.38 5.49373C1260.21 5.04943 1260.12 4.57007 1260.12 4.08641C1260.12 3.59835 1260.21 3.11454 1260.38 2.66539C1260.56 2.21623 1260.82 1.81143 1261.15 1.47641C1261.47 1.11478 1261.85 0.827608 1262.28 0.633087C1262.7 0.438567 1263.16 0.340944 1263.62 0.346409C1264.07 0.341397 1264.52 0.437557 1264.93 0.628712C1265.34 0.819867 1265.71 1.1018 1266.02 1.45641C1266.35 1.7973 1266.61 2.20646 1266.78 2.65874C1266.96 3.11103 1267.04 3.59687 1267.04 4.08641C1267.02 5.05479 1266.66 5.97969 1266.02 6.66356C1265.38 7.34743 1264.52 7.73606 1263.62 7.74641ZM1252.54 7.81641C1252.09 7.82419 1251.63 7.73253 1251.21 7.54694C1250.79 7.36135 1250.4 7.08565 1250.08 6.73641C1249.75 6.40469 1249.49 6.00309 1249.31 5.55719C1249.14 5.11128 1249.05 4.63082 1249.05 4.14641C1249.05 3.65313 1249.14 3.16374 1249.31 2.70811C1249.49 2.25249 1249.75 1.8402 1250.08 1.49641C1250.39 1.13478 1250.78 0.847608 1251.2 0.653088C1251.63 0.458567 1252.08 0.360944 1252.54 0.366409C1253 0.363159 1253.45 0.46205 1253.86 0.656692C1254.28 0.851335 1254.65 1.1374 1254.96 1.49641C1255.28 1.84259 1255.54 2.25578 1255.71 2.71116C1255.88 3.16654 1255.97 3.65472 1255.96 4.14641C1255.96 5.11813 1255.59 6.04856 1254.95 6.73569C1254.32 7.42281 1253.45 7.81116 1252.54 7.81641Z" fill="#515A6C"/>
</g>
<defs>
<clipPath id="clip0_73_604">
<rect width="1276" height="31" fill="white" transform="translate(0 0.477051)"/>
</clipPath>
</defs>
</svg>
