<svg width="46" height="46" viewBox="0 0 46 46" fill="none" xmlns="http://www.w3.org/2000/svg">
<path d="M28.5723 7.39066C28.8166 7.14634 28.7282 6.73228 28.4006 6.62219C26.6795 6.04371 24.8366 5.73022 22.9205 5.73022C14.2548 5.73022 7.08669 12.1423 5.90195 20.4808C5.86193 20.7625 6.08376 21.0106 6.36826 21.0106H13.171C13.3981 21.0106 13.5926 20.8502 13.6469 20.6297C14.6329 16.6245 18.1459 13.6136 22.3983 13.3844C22.5191 13.3779 22.6344 13.3285 22.7199 13.243L28.5723 7.39066Z" stroke="#9B9C9E" stroke-width="2.86507" stroke-linecap="round"/>
<path d="M30.4063 16.9895C30.2502 16.7928 30.2589 16.5089 30.4364 16.3314L35.1798 11.588C35.3713 11.3965 35.6841 11.402 35.8624 11.6058C38.5078 14.6291 40.1109 18.5877 40.1109 22.9206C40.1109 26.788 38.8338 30.357 36.6784 33.2291C36.5076 33.4567 36.1756 33.4748 35.9744 33.2735L31.1643 28.4635C31.0037 28.3029 30.9796 28.0521 31.0972 27.8579C31.969 26.4171 32.4707 24.7275 32.4707 22.9206C32.4707 20.6795 31.6988 18.6187 30.4063 16.9895Z" stroke="#9B9C9E" stroke-width="2.86507" stroke-linecap="round"/>
<path d="M24.4405 32.5445C24.3344 32.4384 24.1846 32.3891 24.0355 32.4064C23.6698 32.449 23.2977 32.4708 22.9205 32.4708C19.8817 32.4708 17.1744 31.0515 15.4253 28.8397C15.3321 28.7219 15.1913 28.6507 15.0411 28.6507H7.38354C7.05399 28.6507 6.82385 28.9767 6.94588 29.2828C9.47491 35.6273 15.6741 40.111 22.9205 40.111C25.3348 40.111 27.6328 39.6133 29.7175 38.715C30.0201 38.5846 30.0876 38.1916 29.8546 37.9587L24.4405 32.5445Z" stroke="#9B9C9E" stroke-width="2.86507" stroke-linecap="round"/>
</svg>
