<svg width="21" height="21" viewBox="0 0 21 21" fill="none" xmlns="http://www.w3.org/2000/svg">
	<path fill-rule="evenodd" clip-rule="evenodd" d="M0.315918 10.7422C0.315918 5.21934 4.79307 0.742188 10.3159 0.742188C15.8388 0.742188 20.3159 5.21934 20.3159 10.7422C20.3159 16.265 15.8388 20.7422 10.3159 20.7422C4.79307 20.7422 0.315918 16.265 0.315918 10.7422ZM8.02302 7.03508C7.6325 6.64456 6.99934 6.64456 6.60881 7.03508C6.21829 7.4256 6.21829 8.05877 6.60881 8.44929L8.9017 10.7422L6.60881 13.0351C6.21829 13.4256 6.21829 14.0588 6.60881 14.4493C6.99934 14.8398 7.6325 14.8398 8.02302 14.4493L10.3159 12.1564L12.6088 14.4493C12.9993 14.8398 13.6325 14.8398 14.023 14.4493C14.4135 14.0588 14.4135 13.4256 14.023 13.0351L11.7301 10.7422L14.023 8.44929C14.4135 8.05877 14.4135 7.4256 14.023 7.03508C13.6325 6.64456 12.9993 6.64456 12.6088 7.03508L10.3159 9.32797L8.02302 7.03508Z" fill="white" fill-opacity="0.4" />
</svg>
