<svg width="13" height="13" viewBox="0 0 13 13" fill="none" xmlns="http://www.w3.org/2000/svg">
	<path d="M2.32594 3.46999L8.78193 3.4668C9.53456 3.52496 10.1365 4.1214 10.201 4.87362V11.3471C10.1271 12.1023 9.52133 12.6999 8.75982 12.7432H2.35649C1.64947 12.6983 1.05279 12.1571 0.94176 11.4578C0.916452 9.22799 0.919872 6.99162 0.939936 4.76163C1.04641 4.06598 1.62689 3.53249 2.32616 3.47022L2.32594 3.46999ZM2.38294 4.56411C2.18526 4.58647 2.05165 4.72446 2.02065 4.9197L2.02019 11.2792C2.04139 11.4751 2.18207 11.6231 2.37906 11.6496H8.74842C8.96844 11.6128 9.09224 11.465 9.10729 11.2452V4.95345C9.08996 4.72651 8.94085 4.57757 8.71422 4.56024L2.38294 4.56411Z" fill="white" fill-opacity="0.6" />
	<path d="M12.5289 1.23873C12.7585 1.49213 12.8933 1.7932 12.9234 2.13761L12.9227 8.61066C12.8912 9.11724 12.5636 9.61058 12.1142 9.84163C11.5809 10.1158 11.0654 9.56451 11.3707 9.07504C11.5091 8.85334 11.7959 8.87638 11.8292 8.56504L11.8296 2.19418C11.8109 2.02357 11.6871 1.88352 11.5221 1.84087C9.37707 1.81054 7.22568 1.81898 5.07999 1.83654C4.87137 1.87212 4.84218 1.98114 4.75212 2.13533C4.41788 2.70874 3.43224 2.26967 3.83899 1.52954C4.08546 1.08181 4.54396 0.781418 5.0565 0.742188H11.5271C11.9211 0.778225 12.2656 0.948376 12.5287 1.23873H12.5289Z" fill="white" fill-opacity="0.6" />
</svg>
