<svg width="21" height="21" viewBox="0 0 21 21" fill="none" xmlns="http://www.w3.org/2000/svg">
<path d="M20.4314 17.1656C20.4314 15.2761 18.8941 13.7396 17.0046 13.7396C15.485 13.7396 14.1925 14.735 13.7454 16.1082C13.0003 16.0647 12.6605 15.8784 12.1513 15.3275C11.4213 14.5389 11.3991 13.556 11.4222 11.741C11.4257 11.4669 11.4284 11.184 11.4284 10.8912C11.4284 10.6748 11.431 10.4406 11.4337 10.1949C11.4514 8.45262 11.4718 6.40878 10.8739 4.9442L13.7632 4.9442C14.2254 6.2908 15.5036 7.26127 17.0046 7.26127C18.8941 7.26127 20.4314 5.72395 20.4314 3.83535C20.4314 1.94674 18.8941 0.408539 17.0046 0.408539C15.5036 0.408539 14.2245 1.3799 13.7623 2.72649L6.92287 2.72649C6.4607 1.3799 5.18152 0.408538 3.68058 0.408538C1.79109 0.408538 0.254656 1.94586 0.254656 3.83535C0.254656 5.72484 1.79109 7.26127 3.68058 7.26127C5.17354 7.26127 6.44739 6.30055 6.91489 4.96461C7.6148 5.01073 8.2189 5.11097 8.51874 5.31767C8.61277 5.38242 8.933 5.69468 9.10421 6.9845C9.23727 7.98868 9.22574 9.14898 9.21598 10.1736C9.21066 10.7466 9.20978 11.239 9.20445 11.7135C9.1805 13.5888 9.15832 15.3595 10.5235 16.8338C11.5916 17.9888 12.5709 18.2806 13.7818 18.3285C14.2591 19.6467 15.524 20.5915 17.0046 20.5915C18.8941 20.5915 20.4314 19.0551 20.4314 17.1656ZM17.0046 2.62625C17.6708 2.62625 18.2137 3.16826 18.2137 3.83535C18.2137 4.50243 17.6708 5.04356 17.0046 5.04356C16.3384 5.04356 15.7964 4.50155 15.7964 3.83535C15.7964 3.16915 16.3384 2.62625 17.0046 2.62625ZM3.68058 5.04356C3.01438 5.04356 2.47237 4.50155 2.47237 3.83535C2.47237 3.16915 3.01438 2.62625 3.68058 2.62625C3.84912 2.62625 4.00969 2.66085 4.15605 2.72383C4.58629 2.90834 4.88879 3.3368 4.88879 3.83535C4.88879 4.33389 4.59072 4.75437 4.16581 4.94154C4.01767 5.00718 3.85356 5.04356 3.68058 5.04356ZM16.5309 18.2771C16.0998 18.0926 15.7964 17.6641 15.7964 17.1656C15.7964 16.667 16.0936 16.2465 16.5185 16.0603C16.6675 15.9937 16.8316 15.9574 17.0046 15.9574C17.6708 15.9574 18.2137 16.4994 18.2137 17.1656C18.2137 17.8318 17.6708 18.3738 17.0046 18.3738C16.836 18.3738 16.6764 18.3392 16.5309 18.2771Z" fill="#0B78FD"/>
</svg>
