<svg width="23" height="23" viewBox="0 0 23 23" fill="none" xmlns="http://www.w3.org/2000/svg">
<g clip-path="url(#clip0_73_599)">
<path fill-rule="evenodd" clip-rule="evenodd" d="M11.5635 0.345703C5.43293 0.345703 0.476929 5.33824 0.476929 11.5147C0.476929 16.4519 3.65241 20.6311 8.05765 22.1102C8.60842 22.2214 8.81016 21.8699 8.81016 21.5742C8.81016 21.3153 8.79201 20.4277 8.79201 19.503C5.70798 20.1688 5.06575 18.1716 5.06575 18.1716C4.57013 16.8771 3.83577 16.5445 3.83577 16.5445C2.82637 15.8603 3.9093 15.8603 3.9093 15.8603C5.02899 15.9342 5.61652 17.0067 5.61652 17.0067C6.60754 18.7078 8.20447 18.2272 8.84692 17.9312C8.93861 17.2101 9.23248 16.7108 9.54452 16.4335C7.08478 16.1746 4.49683 15.213 4.49683 10.9229C4.49683 9.70241 4.93708 8.7039 5.63468 7.92733C5.52461 7.65002 5.13905 6.50332 5.74497 4.96857C5.74497 4.96857 6.68107 4.67265 8.79178 6.11504C9.69545 5.87055 10.6274 5.74618 11.5635 5.74514C12.4996 5.74514 13.4539 5.87472 14.3351 6.11504C16.446 4.67265 17.3821 4.96857 17.3821 4.96857C17.988 6.50332 17.6023 7.65002 17.4922 7.92733C18.2082 8.7039 18.6303 9.70241 18.6303 10.9229C18.6303 15.213 16.0423 16.1559 13.5642 16.4335C13.9681 16.7848 14.3167 17.4504 14.3167 18.5045C14.3167 20.0022 14.2986 21.2043 14.2986 21.574C14.2986 21.8699 14.5005 22.2214 15.0511 22.1105C19.4563 20.6309 22.6318 16.4519 22.6318 11.5147C22.6499 5.33824 17.6758 0.345703 11.5635 0.345703Z" fill="#8493AE"/>
</g>
<defs>
<clipPath id="clip0_73_599">
<rect width="22.2395" height="21.7856" fill="white" transform="translate(0.476929 0.345703)"/>
</clipPath>
</defs>
</svg>
