<svg width="46" height="46" viewBox="0 0 46 46" fill="none" xmlns="http://www.w3.org/2000/svg">
<path d="M22.9205 40.111C13.4265 40.111 5.73013 32.4146 5.73013 22.9206C5.73013 18.5178 7.3853 14.5017 10.1073 11.4604M22.9205 40.111C23.5661 40.111 24.2034 40.0754 24.8306 40.0061C26.1551 39.8597 27.4343 39.5628 28.6507 39.1328M22.9205 40.111L23.4343 37.0285C23.7161 35.3376 23.2936 33.605 22.2651 32.2336L22.1791 32.1189C21.4205 31.1075 21.0105 29.8774 21.0105 28.6132V27.9656C21.0105 27.169 21.2594 26.3922 21.7225 25.7439L23.4285 23.3555C24.4474 21.929 26.6406 22.1932 27.2917 23.8209C27.5465 24.4578 28.0817 24.941 28.7414 25.1294L29.5525 25.3612C32.009 26.0631 33.157 28.8824 31.8894 31.1006L30.8343 32.947C30.6524 33.2655 30.5021 33.601 30.3856 33.9489L28.6507 39.1328M10.1073 11.4604C13.255 7.94349 17.8293 5.73022 22.9205 5.73022C25.0897 5.73022 27.1649 6.13198 29.0761 6.86514M10.1073 11.4604L10.9796 12.2262C12.4749 13.5392 13.2225 15.5078 12.9757 17.4824L12.6114 20.3968C12.4953 21.3258 13.0079 22.2196 13.8684 22.5884C14.9185 23.0384 16.1357 22.5668 16.6085 21.5267L17.6508 19.2337C17.9753 18.5197 18.4743 17.8989 19.1017 17.4283L21.0402 15.9744C21.6408 15.524 22.3714 15.2804 23.1221 15.2804H24.971C26.9521 15.2804 28.1337 13.0725 27.0348 11.4241C26.3262 10.3613 26.5407 8.93409 27.5304 8.12647L29.0761 6.86514M28.6507 39.1328C35.3274 36.773 40.1109 30.4054 40.1109 22.9206C40.1109 15.5958 35.5296 9.34091 29.0761 6.86514" stroke="#9B9C9E" stroke-width="2.86507" stroke-linecap="round"/>
</svg>
