<svg width="18" height="18" viewBox="0 0 18 18" fill="none" xmlns="http://www.w3.org/2000/svg">
	<path fill-rule="evenodd" clip-rule="evenodd" d="M11.3092 12.1882C8.65895 14.3109 4.77952 14.1438 2.32273 11.687C-0.313307 9.05099 -0.313307 4.77713 2.32273 2.14109C4.95877 -0.494947 9.23263 -0.494947 11.8687 2.14109C14.3255 4.59787 14.4925 8.4773 12.3699 11.1276L17.5255 16.2832C17.8184 16.5761 17.8184 17.051 17.5255 17.3439C17.2326 17.6368 16.7577 17.6368 16.4649 17.3439L11.3092 12.1882ZM3.38339 10.6264C1.33314 8.57612 1.33314 5.252 3.38339 3.20175C5.43364 1.1515 8.75776 1.1515 10.808 3.20175C12.8568 5.2505 12.8583 8.57124 10.8125 10.6219C10.811 10.6233 10.8095 10.6248 10.808 10.6263C10.8065 10.6279 10.805 10.6294 10.8035 10.6309C8.75289 12.6766 5.43214 12.6751 3.38339 10.6264Z" fill="white" fill-opacity="0.5" />
</svg>
