<svg width="38" height="38" viewBox="0 0 38 38" fill="none" xmlns="http://www.w3.org/2000/svg">
<path d="M13.5164 22.6433C14.9164 24.2294 16.9646 25.2298 19.2465 25.2298C21.5285 25.2298 23.5767 24.2294 24.9767 22.6433M16.3815 14.2736C15.8746 14.7273 15.2052 15.0031 14.4714 15.0031C13.7376 15.0031 13.0683 14.7273 12.5614 14.2736M25.9317 14.2736C25.4248 14.7273 24.7554 15.0031 24.0217 15.0031C23.2879 15.0031 22.6185 14.7273 22.1116 14.2736M36.4369 18.8232C36.4369 28.3172 28.7405 36.0136 19.2465 36.0136C9.75255 36.0136 2.05615 28.3172 2.05615 18.8232C2.05615 9.32921 9.75255 1.63281 19.2465 1.63281C28.7405 1.63281 36.4369 9.32921 36.4369 18.8232Z" stroke="#9B9C9E" stroke-width="2.86507" stroke-linecap="round" stroke-linejoin="round"/>
</svg>
