<svg width="46" height="39" viewBox="0 0 46 39" fill="none" xmlns="http://www.w3.org/2000/svg">
<path d="M42.098 0.336717C36.0296 2.8501 10.009 13.6281 2.81956 16.5657C-2.00203 18.4473 0.820596 20.2115 0.820596 20.2115C0.820596 20.2115 4.9364 21.6225 8.4648 22.6809C11.9927 23.7394 13.8743 22.5636 13.8743 22.5636L30.4559 11.3914C36.3359 7.39302 34.9248 10.6857 33.5133 12.0972C30.4559 15.1551 25.399 19.9762 21.1654 23.8572C19.2838 25.5036 20.2243 26.9146 21.048 27.6204C24.1054 30.2078 32.4554 35.4999 32.9254 35.8525C35.4097 37.6113 40.2964 40.1429 41.0396 34.7941L43.9796 16.3309C44.9207 10.0983 45.8612 4.33564 45.9786 2.68931C46.3317 -1.30961 42.098 0.336717 42.098 0.336717Z" fill="url(#paint0_linear_129_67)"/>
<defs>
<linearGradient id="paint0_linear_129_67" x1="22.9995" y1="6" x2="22.9995" y2="38.0162" gradientUnits="userSpaceOnUse">
<stop offset="0.25" stop-color="#E9EFFF"/>
<stop offset="1" stop-color="#515A6C"/>
</linearGradient>
</defs>
</svg>
