<svg width="18" height="18" viewBox="0 0 18 18" fill="none" xmlns="http://www.w3.org/2000/svg">
	<path fill-rule="evenodd" clip-rule="evenodd" d="M0.698242 9.25326C0.698242 4.65088 4.4292 0.919922 9.03158 0.919922C13.6339 0.919922 17.3649 4.65088 17.3649 9.25326C17.3649 13.8556 13.6339 17.5866 9.03158 17.5866C4.4292 17.5866 0.698242 13.8556 0.698242 9.25326ZM9.86491 5.91992C9.86491 5.45968 9.49181 5.08659 9.03158 5.08659C8.57134 5.08659 8.19824 5.45968 8.19824 5.91992V9.25326C8.19824 9.71349 8.57134 10.0866 9.03158 10.0866C9.49181 10.0866 9.86491 9.71349 9.86491 9.25326V5.91992ZM9.03158 11.7533C8.57134 11.7533 8.19824 12.1264 8.19824 12.5866C8.19824 13.0468 8.57134 13.4199 9.03158 13.4199H9.03991C9.50015 13.4199 9.87324 13.0468 9.87324 12.5866C9.87324 12.1264 9.50015 11.7533 9.03991 11.7533H9.03158Z" fill="white" fill-opacity="0.4" />
</svg>
