<svg width="19" height="17" viewBox="0 0 19 17" fill="none" xmlns="http://www.w3.org/2000/svg">
<path d="M14.256 3.83019C14.2792 3.8658 14.6761 3.85487 14.749 3.85406C15.9318 3.84152 16.8028 3.79903 17.7409 4.60067C19.0767 5.74224 18.7473 7.25569 18.7844 8.79505C18.7068 10.4967 18.8848 12.2784 18.7831 13.9707C18.6861 15.589 17.4233 16.7852 15.7382 16.8714C13.7431 16.9738 11.6467 16.7941 9.64906 16.8726C7.69612 16.7998 5.67063 16.9665 3.72571 16.8726C2.11063 16.7941 0.810223 15.6546 0.682418 14.0917L0.681152 3.37737C0.763825 2.14354 1.67491 1.04891 2.91121 0.705756C3.30644 0.596091 3.59875 0.605398 4.00199 0.599328C5.83851 0.573025 7.68473 0.604184 9.52125 0.599328C11.0621 0.595282 12.3832 0.37838 13.5052 1.62921C14.0522 2.23904 14.291 3.02773 14.256 3.82978V3.83019ZM2.36793 3.47934C2.35697 3.59265 2.37595 3.7185 2.36793 3.83302L12.546 3.8229V3.37818C12.546 3.34904 12.4755 3.11959 12.4591 3.07751C12.279 2.61659 11.7943 2.2791 11.2894 2.2184L3.68395 2.21516C2.98334 2.27789 2.43247 2.80679 2.36751 3.47934H2.36793ZM11.6488 9.8051C11.1646 10.3279 11.505 11.1037 12.222 11.1684C12.9922 11.238 13.8734 11.1292 14.6541 11.1619C15.6504 10.9758 15.5969 9.65861 14.5976 9.53599C13.8371 9.57889 12.9906 9.47003 12.2406 9.53397C12.0213 9.55258 11.7952 9.64687 11.6488 9.8051Z" fill="white"/>
</svg>
