<svg width="25" height="25" viewBox="0 0 25 25" fill="none" xmlns="http://www.w3.org/2000/svg">
<path d="M20.1929 3.05957L13.8522 10.306M4.12988 21.4173L10.8932 13.6877M13.8522 10.306L9.45093 4.09245C9.18304 3.71426 9.04909 3.52516 8.87598 3.38853C8.72268 3.26754 8.54764 3.17702 8.36031 3.12186C8.14875 3.05957 7.91702 3.05957 7.45355 3.05957H5.73163C4.96641 3.05957 4.58379 3.05957 4.3775 3.21839C4.19789 3.35668 4.08887 3.56751 4.07984 3.79402C4.06947 4.05415 4.29063 4.36638 4.73294 4.99082L10.8932 13.6877M13.8522 10.306L20.3547 19.486C20.797 20.1105 21.0182 20.4227 21.0078 20.6828C20.9988 20.9093 20.8898 21.1202 20.7101 21.2584C20.5039 21.4173 20.1212 21.4173 19.356 21.4173H17.6341C17.1706 21.4173 16.9389 21.4173 16.7273 21.355C16.54 21.2998 16.365 21.2093 16.2117 21.0883C16.0386 20.9517 15.9046 20.7626 15.6367 20.3844L10.8932 13.6877" stroke="#B7CCF1" stroke-opacity="0.7" stroke-width="2.03974" stroke-linecap="round" stroke-linejoin="round"/>
</svg>
