<svg width="110" height="38" viewBox="0 0 110 38" fill="none" xmlns="http://www.w3.org/2000/svg">
<path d="M104.268 5.39614C107.611 5.39614 109.84 7.56654 109.84 11.966V21.1168H106.086V13.2565C106.086 9.76626 105.177 8.79838 103.212 8.79838C101.041 8.79838 99.047 11.2327 99.047 14.811V21.1168H95.2928V5.63078H99.047V6.59866C99.047 7.53721 98.871 8.09447 98.5777 8.71039C98.4604 8.97436 98.2844 9.38498 98.6657 9.47297C98.9003 9.53163 98.9883 9.35565 99.1056 9.12101C99.8096 7.56654 101.569 5.39614 104.268 5.39614Z" fill="white"/>
<path d="M85.6565 5.39614C90.4959 5.39614 93.3995 8.97436 93.3995 13.3738C93.3995 17.7733 90.4959 21.3515 85.6565 21.3515C80.8171 21.3515 77.9135 17.7733 77.9135 13.3738C77.9135 8.97436 80.8171 5.39614 85.6565 5.39614ZM85.6565 17.9492C88.2082 17.9492 89.6453 15.8962 89.6453 13.3738C89.6453 10.8515 88.2082 8.79838 85.6565 8.79838C83.1048 8.79838 81.6677 10.8515 81.6677 13.3738C81.6677 15.8962 83.1048 17.9492 85.6565 17.9492Z" fill="white"/>
<path d="M72.2645 3.7542V0H76.0187V3.7542H72.2645ZM72.2645 5.6313H76.0187V21.1174H72.2645V5.6313Z" fill="white"/>
<path d="M69.6774 5.63181V8.91673H65.4539V15.9852C65.4539 17.6863 65.4832 17.8329 67.067 17.8329H69.6774V21.1179H66.2751C63.1662 21.1179 61.6997 20.0913 61.6997 16.3665V8.91673H58.884V5.63181H61.6997V1.40833H65.4539V5.63181H69.6774Z" fill="white"/>
<path d="M43.6574 13.3738C43.6574 8.76905 46.6784 5.39614 51.4884 5.39614C55.8292 5.39614 58.4102 8.32911 58.6742 11.4967H54.9787C54.744 10.0302 53.6002 8.79838 51.4884 8.79838C48.9074 8.79838 47.4116 10.6755 47.4116 13.3738C47.4116 16.0721 48.9074 17.9492 51.4884 17.9492C53.6002 17.9492 54.744 16.7174 54.9787 15.2509H58.6742C58.4102 18.4185 55.8586 21.3515 51.4884 21.3515C46.7664 21.3515 43.6574 17.9786 43.6574 13.3738Z" fill="white"/>
<path d="M26.9877 16.864C26.9877 13.4325 29.51 12.1713 32.619 11.9953C35.376 11.8487 37.8103 12.1126 37.781 10.6755C37.7517 9.61961 37.341 8.44643 34.672 8.44643C32.0324 8.44643 31.3578 9.53163 31.1525 10.7928H27.4569C27.9849 6.89195 31.3285 5.39614 34.7894 5.39614C38.3383 5.39614 41.5352 6.56933 41.5352 12.5526V21.1168H37.781V20.0316C37.781 19.3277 37.957 18.8585 38.2209 18.3305C38.3383 18.0666 38.4556 17.7733 38.1916 17.6559C37.8983 17.5386 37.781 17.8319 37.7223 17.9786C36.8424 20.1196 35.1413 21.3515 32.3843 21.3515C29.4807 21.3515 26.9877 19.4744 26.9877 16.864ZM37.781 13.1392C36.9011 14.1071 35.4933 14.2537 33.2642 14.4883C31.6511 14.6643 30.7419 15.2802 30.7419 16.6587C30.7419 17.9492 31.9737 18.7705 33.7042 18.5358C35.6986 18.2719 37.7517 16.9814 37.781 13.1392Z" fill="white"/>
<path d="M20.7117 8.65173C21.6503 6.51067 22.5008 5.39614 26.2844 5.39614V9.209C21.9142 8.9157 20.6531 10.4702 20.6531 14.4004V21.1168H16.8989V5.63078H20.6531V6.48134C20.6531 7.15592 20.4771 7.74251 20.2131 8.27045C20.0958 8.53442 20.0078 8.88637 20.3598 8.94503C20.5357 8.97436 20.6824 8.73972 20.7117 8.65173Z" fill="white"/>
<path d="M3.98884 21.1172H0V0.469154H14.5475V3.98872H3.98884V9.15074H12.6704V12.4357H3.98884V21.1172Z" fill="white"/>
<path d="M71.7283 30.446C73.8089 30.7279 75.366 31.2111 75.366 33.1978C75.366 34.7281 74.0908 36.1241 71.6075 36.1241C68.9899 36.1241 67.8489 34.4327 67.8489 32.6877H69.1912C69.2181 33.6273 69.7147 34.9428 71.6075 34.9428C73.4599 34.9428 73.97 33.9898 73.97 33.2783C73.97 32.4461 73.4465 31.9897 71.594 31.7615C69.3926 31.493 68.171 30.7279 68.171 29.117C68.171 27.6405 69.4328 26.4592 71.6209 26.4592C73.9431 26.4592 74.9633 27.9358 75.0036 29.466H73.7015C73.7015 28.6338 73.1377 27.6405 71.594 27.6405C70.0101 27.6405 69.5537 28.419 69.5537 29.0365C69.5537 29.6137 69.8087 30.1909 71.7283 30.446Z" fill="white"/>
<path d="M82.6687 32.4863C82.6687 32.6743 82.6553 32.8085 82.6284 32.9562H77.5007C77.5946 34.0569 78.3464 34.9428 79.5947 34.9428C80.521 34.9428 80.9774 34.4864 81.219 33.6944H82.5479C82.266 34.9697 81.3264 36.1241 79.5679 36.1241C77.4067 36.1241 76.2254 34.5267 76.2254 32.5803C76.2254 30.5131 77.5678 29.0365 79.541 29.0365C81.0713 29.0365 82.6687 30.0433 82.6687 32.4863ZM77.5678 31.8823H81.3801C81.2995 30.8755 80.6552 30.1641 79.6082 30.1641C78.3195 30.1641 77.7557 30.9561 77.5678 31.8823Z" fill="white"/>
<path d="M87.4249 29.0365C89.0089 29.0365 89.9754 29.9224 89.9754 31.936V36.0167H88.6867V32.2044C88.6867 30.607 88.0021 30.1641 87.1028 30.1641C86.1094 30.1641 85.0356 31.1708 85.0356 32.8085V36.0167H83.7469V29.1439H85.0356V29.6003C85.0356 29.8822 85.0087 30.1641 84.8879 30.5131C84.8476 30.6339 84.7939 30.7681 84.9013 30.795C84.9819 30.8218 85.0221 30.7279 85.049 30.6742C85.3174 30.003 86.19 29.0365 87.4249 29.0365Z" fill="white"/>
<path d="M96.421 26.3518H97.7096V36.0167H96.421V35.4395C96.421 35.1979 96.4478 35.0099 96.5552 34.7146C96.5955 34.6072 96.6626 34.4864 96.5284 34.4462C96.4478 34.4193 96.4076 34.5267 96.3941 34.567C96.072 35.5335 95.1592 36.1241 94.0853 36.1241C92.3 36.1241 91.0516 34.6207 91.0516 32.5803C91.0516 30.5399 92.3 29.0365 94.0853 29.0365C95.186 29.0365 96.0854 29.6405 96.3941 30.5668C96.4076 30.607 96.4478 30.7413 96.5552 30.701C96.676 30.6607 96.5955 30.5265 96.5552 30.4191C96.4478 30.1372 96.421 29.9359 96.421 29.6808V26.3518ZM94.3538 34.9428C95.5753 34.9428 96.421 33.8555 96.421 32.5803C96.421 31.3051 95.5753 30.2178 94.3538 30.2178C93.0114 30.2178 92.3402 31.3051 92.3402 32.5803C92.3402 33.8555 93.0114 34.9428 94.3538 34.9428Z" fill="white"/>
<path d="M106.029 36.0167L105.264 33.7616H100.888L100.123 36.0167H98.566L102.002 26.5666H104.15L107.587 36.0167H106.029ZM101.278 32.5803H104.875L103.318 27.9626C103.264 27.7881 103.211 27.627 103.184 27.3988C103.17 27.3183 103.17 27.2377 103.076 27.2377C102.982 27.2377 102.982 27.3183 102.969 27.3988C102.942 27.627 102.888 27.7881 102.835 27.9626L101.278 32.5803Z" fill="white"/>
<path d="M109.84 36.0167H108.444V26.5666H109.84V36.0167Z" fill="white"/>
<path d="M56.3056 27.8756H57.4349V29.7462C57.4349 29.9315 57.3908 30.0726 57.3114 30.2314C57.2761 30.3197 57.2144 30.4256 57.3026 30.4697C57.3908 30.5138 57.4438 30.3991 57.4614 30.3638C57.7438 29.8697 58.2114 29.4991 58.9349 29.4991C60.1437 29.4991 60.9643 30.5579 60.9643 31.8991C60.9643 33.2402 60.1437 34.299 58.9349 34.299C58.229 34.299 57.7438 33.9372 57.4614 33.4255C57.4438 33.399 57.4085 33.3108 57.3291 33.3373C57.232 33.3726 57.2673 33.4608 57.3114 33.549C57.3908 33.7078 57.4349 33.849 57.4349 34.0255V34.2284H56.3056V27.8756ZM58.6702 33.2755C59.4643 33.2755 59.8349 32.6402 59.8349 31.8991C59.8349 31.1579 59.4643 30.5226 58.6702 30.5226C57.9291 30.5226 57.4349 31.1579 57.4349 31.8991C57.4349 32.6402 57.9291 33.2755 58.6702 33.2755ZM62.8576 34.2902L61.04 29.5697H62.24L63.2812 32.5785C63.3429 32.7637 63.3517 32.9314 63.3517 33.1079C63.3517 33.1696 63.3606 33.2579 63.4576 33.2579C63.5547 33.2579 63.5635 33.1784 63.5635 33.1079C63.5635 32.9402 63.5812 32.7637 63.6429 32.5785L64.64 29.5697H65.8399L63.8635 34.7666C63.5459 35.596 63.1047 35.9225 62.2929 35.9225H61.4459V34.9343H61.8341C62.5047 34.9343 62.6371 34.9343 62.7606 34.5725L62.8576 34.2902Z" fill="white"/>
</svg>
