<svg width="532" height="532" viewBox="0 0 532 532" fill="none" xmlns="http://www.w3.org/2000/svg">
	<path fill-rule="evenodd" clip-rule="evenodd" d="M265.559 531.118C412.222 531.118 531.118 412.222 531.118 265.559C531.118 118.895 412.222 0 265.559 0C118.895 0 0 118.895 0 265.559C0 412.222 118.895 531.118 265.559 531.118ZM490.482 223.052C476.844 150.433 428.905 89.9117 364.132 58.9527C349.34 51.883 341.945 48.3482 340.875 49.9477C339.806 51.5473 346.173 57.2765 358.901 68.7351C401.942 107.478 437.403 169.118 445 195.705C435.45 202.868 416.346 212.42 405.176 215.453C407.137 231.406 408.166 247.93 408.166 264.848C408.166 275.095 407.939 285.247 407.467 295.256C407.19 301.09 407.05 304.007 408.912 305.42C410.771 306.836 413.455 305.953 418.823 304.187C433.559 299.339 445.862 293.913 455.382 288.19C467.397 280.967 480.702 271.115 486.256 261.115C491.814 251.115 492.924 236.046 490.482 223.052ZM247.242 71.094C247.242 68.0623 247.242 66.5467 246.177 65.838C245.111 65.1293 243.773 65.6905 241.096 66.8127C219.614 75.8209 200.921 95.0232 186.483 124.395C179.824 137.942 174.29 153.269 169.967 170.014C169.228 172.878 168.858 174.309 169.651 175.195C170.443 176.081 171.931 175.869 174.907 175.447C197.595 172.223 221.923 170.189 247.242 169.524V71.094ZM247.242 206.233C223.906 206.88 201.713 208.749 181.204 211.617C171.931 212.914 167.294 213.563 164.071 217.02C160.847 220.478 160.527 225.109 159.887 234.373C159.202 244.288 158.853 254.457 158.853 264.833C158.853 276.733 159.369 288.557 160.351 300.178C161.004 307.894 161.33 311.752 163.985 314.573C166.639 317.394 170.492 317.956 178.197 319.078C204.81 322.96 234.339 325.145 265.559 325.145C267.858 325.145 270.149 325.134 272.431 325.11C276.41 325.069 279.574 328.555 279.139 332.512C277.251 349.658 262.22 361.848 244.981 361.23C218.173 360.271 190.228 358.071 168.658 354.755C168.664 354.784 168.671 354.81 168.677 354.839C160.548 353.583 151.82 352.138 145.966 350.911C139.292 349.512 131.32 347.563 124.893 345.928C121.706 345.118 118.951 344.398 116.996 343.882C116.019 343.623 115.244 343.416 114.716 343.276L114.702 343.271C108.849 341.621 103.213 339.876 97.814 338.037C76.0135 330.612 57.0539 321.36 43.1749 310.187C42.3182 309.497 41.4711 308.792 40.6365 308.072C54.1679 380.104 101.446 440.232 165.426 471.412C172.499 474.86 176.035 476.582 177.15 475.256C178.266 473.927 175.853 470.596 171.026 463.935C162.79 452.567 155.533 439.393 149.263 425.129C146.747 419.406 144.363 413.443 142.117 407.272C138.776 398.089 137.106 393.497 139.553 390.554C142 387.611 147.031 388.45 157.093 390.125C160.412 390.679 163.567 391.183 166.23 391.588C174.522 392.844 181.405 398.55 184.602 406.304C185.332 408.073 186.074 409.818 186.829 411.535C195.392 431.012 205.103 445.967 214.914 455.735C224.782 465.561 232.977 468.504 239.059 468.504C263.065 468.504 283.141 453.249 297.986 415.638C304.228 399.817 309.01 381.144 312.443 360.248C312.385 360.254 312.323 360.256 312.265 360.259C314.407 347.86 315.832 336.152 316.884 323.12C316.913 323.117 316.939 323.114 316.968 323.114C318.519 304.753 319.265 285.221 319.265 264.833C319.265 253.704 318.883 242.784 318.146 232.136C297.774 233.406 271.748 234.145 247.3 233.109V232.536H247.242V206.233ZM118.41 264.833C118.41 275.102 118.765 285.348 119.456 295.501C119.744 299.741 119.888 301.862 118.932 303.168C118.435 303.847 117.74 304.383 116.956 304.686C115.446 305.274 113.511 304.616 109.642 303.299C90.0265 296.62 75.47 289.078 66.1865 281.604C56.7377 273.998 55.0432 268.459 55.0432 265.563C55.0432 262.734 56.6457 257.398 65.5553 250.035C74.3414 242.775 88.172 235.389 106.925 228.768C107.177 228.68 107.429 228.591 107.682 228.503C113.16 226.588 115.899 225.631 117.797 227.061C119.695 228.491 119.523 231.501 119.179 237.519C118.666 246.509 118.41 255.625 118.41 264.833ZM149.547 109.449C140.852 127.136 133.994 146.945 128.954 168.262C126.997 176.536 126.019 180.673 123.57 183.272C121.121 185.871 117.058 187.092 108.931 189.533C104.022 191.008 99.2774 192.553 94.7094 194.166C73.7601 201.561 55.5299 210.717 42.1807 221.748C41.6614 222.177 41.1462 222.612 40.6354 223.053C54.9124 147.038 106.772 84.278 176.181 54.8052C185.526 50.8374 190.199 48.8532 191.228 50.3478C192.256 51.8425 188.559 55.6811 181.166 63.3581C168.542 76.4661 158.035 92.1809 149.547 109.449ZM354.839 465.229C347.604 473.42 343.984 477.514 345.054 478.96C346.123 480.408 350.838 478.26 360.265 473.971C423.232 445.311 470.929 388.954 487.795 320.468C489.034 315.43 489.654 312.909 488.401 312.038C487.148 311.164 484.896 312.691 480.391 315.747C478.389 317.103 476.349 318.402 474.286 319.641C459.514 328.52 440.937 336.119 419.744 342.318C411.249 344.8 407.001 346.042 404.486 348.787C401.971 351.532 401.105 355.865 399.372 364.534C394.514 388.805 387.468 411.15 377.793 430.578C371.336 443.548 363.704 455.202 354.839 465.229Z" fill="white" />
</svg>
