<svg width="334" height="50" viewBox="0 0 334 50" fill="none" xmlns="http://www.w3.org/2000/svg">
<g clip-path="url(#clip0_6019_4273)">
<mask id="mask0_6019_4273" style="mask-type:luminance" maskUnits="userSpaceOnUse" x="0" y="0" width="334" height="50">
<path d="M333.057 0.0410156H0.596191V49.4469H333.057V0.0410156Z" fill="white"/>
</mask>
<g mask="url(#mask0_6019_4273)">
<path d="M56.4507 38.9947L47.3312 48.7729C47.1339 48.9853 46.8951 49.1548 46.6294 49.2708C46.3638 49.3868 46.0771 49.4468 45.7873 49.4471H2.55713C2.35095 49.447 2.14927 49.3868 1.97679 49.2738C1.80432 49.1608 1.66853 49 1.58606 48.811C1.50359 48.622 1.47801 48.4131 1.51246 48.2099C1.54691 48.0066 1.63989 47.8177 1.78002 47.6664L10.8892 37.8882C11.0865 37.6758 11.3253 37.5063 11.591 37.3903C11.8566 37.2744 12.1433 37.2143 12.4332 37.214H55.6633C55.8712 37.2097 56.0761 37.2671 56.2515 37.3788C56.427 37.4906 56.566 37.6518 56.6499 37.8421C56.7343 38.0325 56.76 38.2435 56.7245 38.4486C56.689 38.6537 56.5938 38.8437 56.4507 38.9947ZM47.3312 19.2992C47.1332 19.0878 46.8942 18.919 46.6287 18.803C46.3633 18.6872 46.0769 18.6266 45.7873 18.6251H2.55713C2.35095 18.6252 2.14927 18.6854 1.97679 18.7984C1.80432 18.9114 1.66853 19.0722 1.58606 19.2612C1.50359 19.4502 1.47801 19.6591 1.51246 19.8623C1.54691 20.0656 1.63989 20.2545 1.78002 20.4058L10.8892 30.1892C11.0872 30.4006 11.3263 30.5694 11.5917 30.6853C11.8572 30.8012 12.1435 30.8618 12.4332 30.8633H55.6633C55.8692 30.8622 56.0699 30.8012 56.2418 30.6879C56.4137 30.5745 56.5485 30.4136 56.6303 30.2249C56.7122 30.0361 56.7374 29.8276 56.7024 29.6247C56.6679 29.4219 56.5753 29.2336 56.4353 29.0827L47.3312 19.2992ZM2.55713 12.2743H45.7873C46.0771 12.2741 46.3638 12.214 46.6294 12.098C46.8951 11.9821 47.1339 11.8125 47.3312 11.6001L56.4507 1.82191C56.5938 1.67087 56.689 1.48086 56.7245 1.27578C56.76 1.0707 56.7343 0.859712 56.6499 0.669365C56.566 0.479019 56.427 0.31782 56.2515 0.206054C56.0761 0.0942861 55.8712 0.0369433 55.6633 0.0412406H12.4332C12.1433 0.0415457 11.8566 0.101566 11.591 0.21756C11.3253 0.333553 11.0865 0.503031 10.8892 0.715426L1.78002 10.4936C1.63989 10.6449 1.54691 10.8338 1.51246 11.0371C1.47801 11.2403 1.50359 11.4492 1.58606 11.6382C1.66853 11.8272 1.80432 11.988 1.97679 12.101C2.14927 12.214 2.35095 12.2742 2.55713 12.2743Z" fill="url(#paint0_linear_6019_4273)"/>
<path d="M109.155 20.9367H86.0273V13.32H115.166V5.70324H85.9501C84.9517 5.69783 83.9625 5.88907 83.0382 6.26605C82.1139 6.64308 81.2725 7.19843 80.5633 7.90046C79.8536 8.60249 79.289 9.43745 78.902 10.3576C78.515 11.2778 78.3128 12.2652 78.3076 13.2634V20.983C78.3117 21.9821 78.5124 22.9706 78.8989 23.892C79.2854 24.8133 79.8495 25.6495 80.5592 26.3526C81.2694 27.0557 82.1108 27.612 83.0357 27.9897C83.9605 28.3673 84.9512 28.5589 85.9501 28.5535H109.109V36.1702H78.8583V43.7869H109.155C110.154 43.7924 111.143 43.6011 112.067 43.2241C112.992 42.8471 113.833 42.2917 114.542 41.5897C115.252 40.8877 115.816 40.0528 116.203 39.1326C116.59 38.2124 116.793 37.225 116.798 36.2268V28.5071C116.794 27.5081 116.593 26.5196 116.207 25.5982C115.82 24.6768 115.256 23.8407 114.546 23.1376C113.836 22.4345 112.995 21.8782 112.07 21.5006C111.145 21.1229 110.154 20.9313 109.155 20.9367Z" fill="white"/>
<path d="M153.96 5.70338H130.745C129.745 5.69524 128.753 5.88448 127.826 6.26027C126.9 6.63607 126.056 7.19096 125.344 7.89329C124.632 8.59558 124.066 9.43141 123.678 10.3529C123.289 11.2745 123.087 12.2636 123.082 13.2635V36.2269C123.087 37.2269 123.289 38.216 123.678 39.1375C124.066 40.059 124.632 40.8949 125.344 41.5972C126.056 42.2995 126.9 42.8544 127.826 43.2302C128.753 43.606 129.745 43.7952 130.745 43.7871H153.96C154.959 43.7925 155.948 43.6012 156.872 43.2243C157.796 42.8472 158.638 42.2919 159.347 41.5899C160.057 40.8878 160.621 40.0529 161.008 39.1327C161.395 38.2126 161.598 37.2252 161.603 36.2269V13.2635C161.598 12.2653 161.395 11.2779 161.008 10.3577C160.621 9.43759 160.057 8.60263 159.347 7.9006C158.638 7.19857 157.796 6.64322 156.872 6.26619C155.948 5.88921 154.959 5.69797 153.96 5.70338ZM153.904 36.1703H130.801V13.3201H153.893L153.904 36.1703Z" fill="white"/>
<path d="M235.274 5.70369H212.63C211.631 5.69828 210.642 5.88953 209.718 6.2665C208.794 6.64353 207.952 7.19888 207.243 7.90091C206.533 8.60294 205.969 9.4379 205.582 10.358C205.195 11.2782 204.992 12.2656 204.987 13.2638V43.7874H212.707V31.2764H235.248V43.7874H242.968V13.2638C242.963 12.2612 242.759 11.2696 242.369 10.346C241.978 9.42251 241.41 8.58529 240.694 7.88254C239.98 7.17984 239.132 6.62557 238.202 6.25163C237.271 5.87769 236.277 5.69149 235.274 5.70369ZM235.218 23.6596H212.676V13.3204H235.218V23.6596Z" fill="white"/>
<path d="M325.414 5.70324H302.77C301.772 5.69783 300.782 5.88907 299.858 6.26605C298.934 6.64308 298.093 7.19843 297.383 7.90046C296.673 8.60249 296.109 9.43745 295.722 10.3576C295.335 11.2778 295.133 12.2652 295.127 13.2634V43.7869H302.847V31.2759H325.337V43.7869H333.057V13.2634C333.052 12.2652 332.849 11.2778 332.462 10.3576C332.075 9.43745 331.511 8.60249 330.801 7.90046C330.091 7.19843 329.25 6.64308 328.326 6.26605C327.402 5.88907 326.413 5.69783 325.414 5.70324ZM325.337 23.6592H302.796V13.32H325.337V23.6592Z" fill="white"/>
<path d="M280.563 36.1702H277.475L266.436 8.89399C266.058 7.95296 265.407 7.14646 264.567 6.57798C263.727 6.00946 262.736 5.70484 261.722 5.70319H254.872C254.206 5.69979 253.546 5.82758 252.93 6.07919C252.314 6.33085 251.753 6.7014 251.28 7.16972C250.807 7.6381 250.43 8.195 250.173 8.80876C249.915 9.42248 249.78 10.081 249.777 10.7467V43.7869H257.497V13.3199H260.584L271.618 40.5961C272.003 41.5353 272.659 42.3385 273.502 42.9032C274.345 43.4679 275.338 43.7684 276.353 43.7663H283.203C283.869 43.7697 284.529 43.642 285.145 43.3903C285.761 43.1387 286.322 42.7681 286.795 42.2998C287.268 41.8314 287.644 41.2745 287.902 40.6608C288.16 40.047 288.294 39.3885 288.298 38.7228V5.70319H280.563V36.1702Z" fill="white"/>
<path d="M176.141 5.70312H168.421V36.2267C168.427 37.2271 168.63 38.2166 169.018 39.1385C169.407 40.0603 169.974 40.8964 170.686 41.5988C171.398 42.3012 172.243 42.8559 173.169 43.2314C174.097 43.6069 175.089 43.7956 176.09 43.7868H199.249V36.1701H176.141V5.70312Z" fill="white"/>
</g>
</g>
<defs>
<linearGradient id="paint0_linear_6019_4273" x1="6.15964" y1="50.6257" x2="51.4895" y2="-0.478549" gradientUnits="userSpaceOnUse">
<stop offset="0.08" stop-color="#9945FF"/>
<stop offset="0.3" stop-color="#8752F3"/>
<stop offset="0.5" stop-color="#5497D5"/>
<stop offset="0.6" stop-color="#43B4CA"/>
<stop offset="0.72" stop-color="#28E0B9"/>
<stop offset="0.97" stop-color="#19FB9B"/>
</linearGradient>
<clipPath id="clip0_6019_4273">
<rect width="332.46" height="49.4059" fill="white" transform="translate(0.596191 0.0410156)"/>
</clipPath>
</defs>
</svg>
