<svg width="187" height="344" viewBox="0 0 187 344" fill="none" xmlns="http://www.w3.org/2000/svg">
<g clip-path="url(#clip0_6105_703)">
<path d="M9.67706 144.776L124.898 183.717L146.028 182.225L177.467 162.998L177.732 152.919L55.2406 110.755L9.20972 134.641L9.67706 144.776Z" fill="#08122B" stroke="#4477F9" stroke-width="0.472063" stroke-miterlimit="10"/>
<path d="M124.729 195.325L149.663 194.386L146.028 182.225L124.899 183.717L124.729 195.325Z" fill="#08122B" stroke="#4477F9" stroke-width="0.472063" stroke-miterlimit="10"/>
<path d="M186.266 171.675L149.663 194.386L146.028 182.225L177.467 162.998L186.266 171.675Z" fill="#070D1D" stroke="#4477F9" stroke-width="0.472063" stroke-miterlimit="10"/>
<path d="M180.814 155.526L186.267 171.675L177.467 162.998L177.732 152.92L180.814 155.526Z" fill="#08122B" stroke="#4477F9" stroke-width="0.472063" stroke-miterlimit="10"/>
<path d="M5.74976 154.907L124.729 195.325L124.898 183.717L9.67732 144.777L5.74976 154.907Z" fill="#070D1D" stroke="#4477F9" stroke-width="0.472063" stroke-miterlimit="10"/>
<path d="M1.0387 144.188L5.74989 154.909L9.67745 144.778L9.21011 134.643L1.0387 144.188Z" fill="#08122B" stroke="#4477F9" stroke-width="0.472063" stroke-miterlimit="10"/>
<path d="M124.729 343.04V195.326L5.74975 154.908L5.44763 300.063L124.729 343.04Z" fill="#070D1D" stroke="#4477F9" stroke-width="0.472063" stroke-miterlimit="10"/>
<path d="M149.663 336.538L145.65 339.729L124.729 343.038V195.325L149.663 194.386V336.538Z" fill="#08122B" stroke="#4477F9" stroke-width="0.472063" stroke-miterlimit="10"/>
<path d="M186.267 306.719L184.331 310.062L149.663 336.54V194.387L186.267 171.676V306.719Z" fill="#070D1D" stroke="#4477F9" stroke-width="0.472063" stroke-miterlimit="10"/>
<path d="M0.236206 285.362L5.44778 300.062L5.7499 154.907L1.03871 144.187L0.236206 285.362Z" fill="#08122B" stroke="#4477F9" stroke-width="0.472063" stroke-miterlimit="10"/>
<path d="M27.6724 243.65L50.5297 274.155L105.317 231.212L97.1553 220.42L52.0308 255.24L37.3166 235.545L27.6724 243.65Z" fill="#4E89F1" stroke="#005CFF" stroke-width="0.472063" stroke-miterlimit="10"/>
<path d="M43.496 137.362C42.7077 136.611 42.2687 135.568 42.2687 134.482V77.1971C42.5283 70.423 44.3788 42.0237 67.2125 20.4457C79.623 8.71963 93.0957 3.85738 100.823 1.75198C108.098 0.0808793 119.678 -1.22674 131.564 3.63079C153.392 12.5528 167.37 38.6296 165.836 68.9171C165.723 84.3913 165.605 99.8609 165.491 115.335C165.142 117.884 164.906 118.389 164.316 119.277C161.125 124.073 154.19 123.464 148.95 123.643C141.633 123.672 136.54 122.968 134.448 118.399C133.41 116.123 133.825 113.692 133.939 110.69C134.349 111.299 136.851 114.764 141.95 115.481C146.637 116.142 149.875 114.91 150.838 113.565C152.165 111.71 151.646 110.208 151.391 109.477C150.385 106.611 146.406 105.507 142.105 104.034C141.803 103.93 140.411 103.51 138.702 102.646C136.049 101.301 135.605 101.135 135.463 100.847C135.265 100.441 135.265 100.588 135.265 96.8066L135.407 73.0665C136.068 54.6419 132.626 40.9379 128.6 36.7319C128.146 36.2551 127.665 35.8208 127.174 35.4242C124.478 33.2386 121.132 32.167 117.695 31.6713C114.003 31.1426 111.492 31.6713 110.387 31.931C104.444 33.3236 97.552 36.7271 88.1532 47.5138C76.937 60.3917 76.2855 74.9265 76.2336 78.8068C76.3328 97.0474 76.4319 115.288 76.531 133.528C76.5405 135.275 75.7474 136.923 74.3737 137.999C72.7876 139.24 70.6349 140.605 67.897 141.624C63.672 143.196 59.9758 143.234 57.894 143.102C56.119 143.102 53.2961 142.889 50.1285 141.624C47.1262 140.425 44.9358 138.731 43.4913 137.357L43.496 137.362Z" fill="black" stroke="#828282" stroke-width="0.472063" stroke-miterlimit="10"/>
<path d="M30.939 240.904L54.3486 271.163L50.5297 274.156L27.6724 243.651L30.939 240.904Z" fill="#16387E" stroke="#005CFF" stroke-width="0.472063" stroke-miterlimit="10"/>
<path d="M135.119 169.023C143.892 169.023 151.004 165.307 151.004 160.724C151.004 156.14 143.892 152.425 135.119 152.425C126.346 152.425 119.234 156.14 119.234 160.724C119.234 165.307 126.346 169.023 135.119 169.023Z" fill="black" stroke="#828282" stroke-width="0.472063" stroke-miterlimit="10"/>
<path d="M121.079 32.3835C122.104 32.544 124.743 32.799 130.072 36.2214C149.686 48.8066 143.479 92.0287 143.682 104.571C142.025 103.934 140.368 103.292 138.706 102.655C139.056 103.292 139.537 104.43 139.358 105.775C139.046 108.102 136.889 110.109 133.943 110.694" stroke="#828282" stroke-width="0.472063" stroke-linejoin="round"/>
</g>
<defs>
<clipPath id="clip0_6105_703">
<rect width="186.805" height="343.374" fill="white"/>
</clipPath>
</defs>
</svg>
