<svg width="381" height="256" viewBox="0 0 381 256" fill="none" xmlns="http://www.w3.org/2000/svg">
<path d="M190.491 255.005L190.42 219.474L379.989 110.238V144.729L190.491 255.005Z" fill="black" stroke="white" stroke-opacity="0.4" stroke-width="0.545773" stroke-miterlimit="10" stroke-linejoin="round"/>
<path d="M1.00012 110.238V145.203L190.491 255.005L190.42 219.474L1.00012 110.238Z" fill="black" stroke="white" stroke-opacity="0.4" stroke-width="0.545773" stroke-miterlimit="10" stroke-linejoin="round"/>
<path d="M190.42 1L379.989 110.237L190.42 219.473L1 110.237L190.42 1Z" fill="#1A1A1A" stroke="white" stroke-opacity="0.4" stroke-width="0.545773" stroke-miterlimit="10" stroke-linejoin="round"/>
<path d="M203.329 203.719L352.638 117.436C358.472 114.064 358.472 105.644 352.638 102.279L206.558 17.8598C196.572 12.0907 184.267 12.0972 174.295 17.8793L28.5334 102.363C22.7773 105.703 22.7773 114.012 28.5334 117.351L177.524 203.706C185.502 208.332 195.344 208.339 203.329 203.726V203.719Z" fill="black" stroke="white" stroke-opacity="0.4" stroke-width="0.545773" stroke-miterlimit="10" stroke-linejoin="round"/>
<path d="M356.211 113.518C355.529 111.777 354.275 110.224 352.443 109.165L206.363 24.7464C196.384 18.9773 184.079 18.9903 174.1 24.7724L28.3383 109.25C26.7011 110.198 25.5252 111.55 24.8236 113.076C23.3293 109.315 24.5637 104.657 28.5267 102.363L174.288 17.8793C184.267 12.0972 196.572 12.0907 206.558 17.8598L352.631 102.272C356.789 104.676 357.984 109.64 356.211 113.518Z" fill="#111111" stroke="white" stroke-opacity="0.4" stroke-width="0.545773" stroke-miterlimit="10" stroke-linejoin="round"/>
<path d="M259.942 65.5642L199.457 100.744C193.701 104.09 186.593 104.116 180.818 100.803L121.288 66.6751C117.701 64.6222 118.598 57.0924 118.598 52.2848H118.657C118.884 53.792 119.761 55.2278 121.275 56.0984L180.805 90.2259C186.587 93.5393 193.688 93.5133 199.444 90.1675L259.935 54.9874C261.222 54.2403 261.891 52.967 261.956 51.6676L261.969 51.7521C261.969 58.1189 262.638 63.6801 259.942 65.5642Z" fill="black" stroke="#4477F9" stroke-width="0.545773" stroke-miterlimit="10" stroke-linejoin="round"/>
<path d="M182.396 11.7834L121.281 46.8204C117.695 48.8734 117.695 54.0449 121.281 56.0978L180.811 90.2254C186.587 93.5387 193.694 93.5127 199.45 90.1669L259.935 54.9869C262.645 53.4147 262.645 49.5036 259.935 47.9314L197.865 11.8353C193.084 9.05473 187.185 9.03523 182.39 11.7899L182.396 11.7834Z" fill="#001A3D" stroke="#4477F9" stroke-width="0.545773" stroke-miterlimit="10" stroke-linejoin="round"/>
<path d="M342.886 114.519L282.401 149.699C276.645 153.045 269.538 153.071 263.762 149.758L204.232 115.63C200.646 113.577 201.542 106.047 201.542 101.24H201.601C201.828 102.747 202.705 104.183 204.219 105.053L263.749 139.181C269.531 142.494 276.632 142.468 282.388 139.122L342.88 103.942C344.166 103.195 344.835 101.922 344.9 100.623L344.913 100.707C344.913 107.074 345.582 112.635 342.886 114.519Z" fill="#070D1D" stroke="#4477F9" stroke-width="0.545773" stroke-miterlimit="10" stroke-linejoin="round"/>
<path d="M265.334 60.7299L204.219 95.767C200.633 97.82 200.633 102.991 204.219 105.044L263.749 139.172C269.525 142.485 276.632 142.459 282.388 139.113L342.873 103.933C345.583 102.361 345.583 98.4502 342.873 96.8779L280.803 60.7819C276.022 58.0013 270.123 57.9818 265.328 60.7364L265.334 60.7299Z" fill="#0F254F" stroke="#4477F9" stroke-width="0.545773" stroke-miterlimit="10" stroke-linejoin="round"/>
<path d="M176.991 114.519L116.506 149.699C110.75 153.045 103.642 153.071 97.8668 149.758L38.3369 115.63C34.7507 113.577 35.6472 106.047 35.6472 101.24H35.7057C35.9331 102.747 36.8101 104.183 38.3239 105.053L97.8538 139.181C103.636 142.494 110.737 142.468 116.493 139.122L176.984 103.942C178.271 103.195 178.94 101.922 179.005 100.623L179.018 100.707C179.018 107.074 179.687 112.635 176.991 114.519Z" fill="#070D1D" stroke="#4477F9" stroke-width="0.545773" stroke-miterlimit="10" stroke-linejoin="round"/>
<path d="M99.4392 60.7299L38.3241 95.767C34.7378 97.82 34.7378 102.991 38.3241 105.044L97.854 139.172C103.63 142.485 110.737 142.459 116.493 139.113L176.978 103.933C179.687 102.361 179.687 98.4502 176.978 96.8779L114.908 60.7819C110.126 58.0013 104.227 57.9818 99.4327 60.7364L99.4392 60.7299Z" fill="#0F254F" stroke="#4477F9" stroke-width="0.545773" stroke-miterlimit="10" stroke-linejoin="round"/>
<path d="M260.202 162.841L199.717 198.021C193.961 201.367 186.853 201.393 181.077 198.08L121.548 163.952C117.961 161.899 118.858 154.37 118.858 149.562H118.916C119.144 151.069 120.021 152.505 121.535 153.376L181.064 187.503C186.847 190.816 193.948 190.79 199.704 187.445L260.195 152.265C261.481 151.518 262.151 150.244 262.216 148.945L262.229 149.029C262.229 155.396 262.898 160.957 260.202 162.841Z" fill="#070D1D" stroke="#4477F9" stroke-width="0.545773" stroke-miterlimit="10" stroke-linejoin="round"/>
<path d="M182.656 109.054L121.541 144.091C117.955 146.144 117.955 151.316 121.541 153.369L181.071 187.496C186.847 190.81 193.954 190.784 199.71 187.438L260.195 152.258C262.904 150.686 262.904 146.775 260.195 145.202L198.125 109.106C193.343 106.326 187.444 106.306 182.65 109.061L182.656 109.054Z" fill="#001A3D" stroke="#4477F9" stroke-width="0.545773" stroke-miterlimit="10" stroke-linejoin="round"/>
<path d="M93.0854 92.4877V111.718C93.0854 112.16 93.5727 112.426 93.943 112.186L103.155 106.183C103.331 106.066 103.565 106.059 103.747 106.17L110.588 110.25C110.77 110.36 110.991 110.354 111.172 110.243L122.899 102.837C123.256 102.61 123.243 102.083 122.873 101.882L117.123 98.7181C116.747 98.5102 116.74 97.971 117.11 97.7501L123.484 93.995C123.965 93.7156 123.776 92.9815 123.217 92.962L93.6637 91.942C93.3518 91.929 93.0854 92.1824 93.0854 92.5007V92.4877Z" stroke="#4477F9" stroke-width="1.09155" stroke-miterlimit="10" stroke-linejoin="round"/>
<path d="M168.721 147.451L176.679 142.845L204.823 155.105L212.405 150.122" stroke="#4477F9" stroke-width="1.09155" stroke-miterlimit="10" stroke-linejoin="round"/>
<path d="M182.942 139.289L190.562 134.742" stroke="#4477F9" stroke-width="1.09155" stroke-miterlimit="10" stroke-linejoin="round"/>
<path d="M191.297 36.0229L170.234 48.2369C169.578 48.6202 169.208 49.3543 169.292 50.1144L170.702 62.1919C170.813 63.1339 171.599 63.8486 172.541 63.8811L196.189 64.5892C196.54 64.6022 196.891 64.5113 197.196 64.3358L216.615 53.2199C217.888 52.4922 217.901 50.6666 216.641 49.9195L193.227 36.0359C192.629 35.6851 191.895 35.6786 191.29 36.0294L191.297 36.0229Z" fill="#08122B"/>
<path d="M194.403 43.4232V56.4427" stroke="#4477F9" stroke-width="1.09155" stroke-miterlimit="10" stroke-linejoin="round"/>
<path d="M183.196 50.1729H205.908" stroke="#4477F9" stroke-width="1.09155" stroke-miterlimit="10" stroke-linejoin="round"/>
<path d="M278.503 93.8137L273.494 96.5099L268.836 93.8722C266.419 92.5014 266.38 89.3049 268.771 87.8886L268.843 87.8432C271.825 86.0825 275.664 86.0825 278.64 87.8432C281.037 89.2595 280.959 92.4819 278.503 93.8007V93.8137Z" stroke="#4477F9" stroke-width="1.09155" stroke-miterlimit="10" stroke-linejoin="round"/>
<path d="M281.368 100.753L273.618 104.716L266.244 100.753L273.806 96.5109L281.368 100.753Z" stroke="#4477F9" stroke-width="1.09155" stroke-miterlimit="10" stroke-linejoin="round"/>
<path d="M295.7 103.715C293.004 105.073 289.483 105.041 286.825 103.637L281.368 100.753L287.072 97.6017C289.697 96.1529 293.257 96.1529 295.875 97.6017C298.65 99.135 298.559 102.279 295.7 103.715Z" stroke="#4477F9" stroke-width="1.09155" stroke-miterlimit="10" stroke-linejoin="round"/>
<path d="M252.159 97.512C254.855 96.1542 258.377 96.1867 261.034 97.59L266.491 100.475L260.787 103.625C258.162 105.074 254.602 105.074 251.984 103.625C249.21 102.092 249.301 98.9478 252.159 97.512Z" stroke="#4477F9" stroke-width="1.09155" stroke-miterlimit="10" stroke-linejoin="round"/>
<path d="M268.888 107.86L273.897 105.164L278.555 107.802C280.972 109.173 281.011 112.369 278.62 113.786L278.549 113.831C275.567 115.592 271.727 115.592 268.752 113.831C266.354 112.415 266.432 109.192 268.888 107.873V107.86Z" stroke="#4477F9" stroke-width="1.09155" stroke-miterlimit="10" stroke-linejoin="round"/>
<path d="M306.907 169.871L379.989 127.57" stroke="white" stroke-opacity="0.4" stroke-width="0.545773" stroke-miterlimit="10" stroke-linejoin="round"/>
<path d="M50.8696 157.021L190.42 237.1L262.547 195.631" stroke="white" stroke-opacity="0.4" stroke-width="0.545773" stroke-miterlimit="10" stroke-linejoin="round"/>
<path d="M1.00012 127.57L8.6793 131.774" stroke="white" stroke-opacity="0.4" stroke-width="0.545773" stroke-miterlimit="10" stroke-linejoin="round"/>
<path d="M267.868 198.216L301.28 178.771C304.769 176.744 306.913 173.015 306.913 168.98C306.913 166.901 304.665 165.608 302.866 166.654L266.9 187.587C264.203 189.159 262.547 192.037 262.547 195.156C262.547 197.884 265.509 199.586 267.868 198.216Z" fill="white" fill-opacity="0.1" stroke="white" stroke-opacity="0.4" stroke-width="0.545773" stroke-miterlimit="10" stroke-linejoin="round"/>
<path d="M303.45 166.395C303.236 170.169 301.138 173.6 297.844 175.516L264.431 194.961C263.859 195.299 263.248 195.448 262.651 195.448C262.618 195.448 262.586 195.448 262.553 195.442C262.547 195.344 262.54 195.253 262.54 195.156C262.54 192.037 264.203 189.153 266.893 187.581L302.859 166.648C303.054 166.538 303.249 166.453 303.45 166.395Z" fill="#21406D" stroke="white" stroke-opacity="0.4" stroke-width="0.545773" stroke-miterlimit="10" stroke-linejoin="round"/>
<path d="M303.45 166.395C303.236 170.169 301.138 173.6 297.844 175.516L264.431 194.961C263.859 195.299 263.248 195.448 262.651 195.448C262.618 195.448 262.586 195.448 262.553 195.442C262.547 195.344 262.54 195.253 262.54 195.156C262.54 192.037 264.203 189.153 266.893 187.581L302.859 166.648C303.054 166.538 303.249 166.453 303.45 166.395Z" fill="black" stroke="white" stroke-opacity="0.4" stroke-width="0.545773" stroke-miterlimit="10" stroke-linejoin="round"/>
<path d="M42.3585 162.074L16.5988 147.547C11.135 144.468 7.75671 138.679 7.75671 132.404V130.487C7.75671 126.329 12.2395 123.711 15.8647 125.751L41.4944 140.206C47.2961 143.474 50.8823 149.62 50.8823 156.273V157.098C50.8823 161.47 46.1721 164.218 42.3715 162.068L42.3585 162.074Z" fill="white" fill-opacity="0.1" stroke="white" stroke-opacity="0.4" stroke-width="0.545773" stroke-miterlimit="10" stroke-linejoin="round"/>
<path d="M50.8692 156.272V157.098C50.8692 157.858 50.7263 158.566 50.4794 159.203C48.9072 159.943 46.9842 159.982 45.2495 159.008L19.4898 144.481C14.026 141.395 10.6412 135.606 10.6412 129.337V127.42C10.6412 126.738 10.7582 126.102 10.9791 125.517C12.4603 124.861 14.2404 124.841 15.8516 125.751L41.4814 140.206C47.2765 143.474 50.8692 149.613 50.8692 156.272Z" fill="black" stroke="white" stroke-opacity="0.4" stroke-width="0.545773" stroke-miterlimit="10" stroke-linejoin="round"/>
<path d="M20.4967 142.319L16.956 144.06C17.5926 143.748 18.0799 143.228 18.4242 142.565C18.8855 141.695 19.0869 140.564 19.0284 139.317C18.9635 137.927 18.5671 136.38 17.8265 134.867C17.0859 133.359 16.1114 132.106 15.0524 131.196C14.0974 130.377 13.0774 129.845 12.1094 129.682C11.3752 129.546 10.6606 129.617 10.0304 129.929L11.4922 129.039L13.5776 128.188C15.9684 127.019 19.4572 129.228 21.3673 133.132C23.2838 137.037 22.894 141.149 20.4967 142.319Z" fill="white" fill-opacity="0.2" stroke="white" stroke-opacity="0.4" stroke-width="0.545773" stroke-miterlimit="10" stroke-linejoin="round"/>
<path d="M44.2671 153.251C45.4817 152.655 45.6804 150.569 44.7109 148.591C43.7413 146.613 41.9706 145.491 40.756 146.087C39.5413 146.682 39.3426 148.768 40.3122 150.747C41.2818 152.725 43.0524 153.846 44.2671 153.251Z" fill="#4E89F1" stroke="white" stroke-opacity="0.4" stroke-width="0.545773" stroke-miterlimit="10" stroke-linejoin="round"/>
<path d="M16.9642 144.057C19.3549 142.885 19.7427 138.773 17.8304 134.871C15.9181 130.969 12.4299 128.756 10.0392 129.928C7.64858 131.099 7.26078 135.212 9.17306 139.114C11.0853 143.016 14.5736 145.229 16.9642 144.057Z" fill="#0F254F" stroke="white" stroke-opacity="0.4" stroke-width="0.545773" stroke-miterlimit="10" stroke-linejoin="round"/>
</svg>
